/* XPM */
static char *result[] = {
/* columns rows colors chars-per-pixel */
"38 58 5 1 ",
"  c #3D120E",
". c #FFC90E",
"X c #E607F8",
"o c #67A4E0",
"O c None",
/* pixels */
"OOOOOOOOOO                  OOOOOOOOOO",
"OOOOOOOOOO                  OOOOOOOOOO",
"OOOOOOOO                      OOOOOOOO",
"OOOOOOOO                      OOOOOOOO",
"OOOOOO                          OOOOOO",
"OOOOOO                          OOOOOO",
"OOOO                              OOOO",
"OOOO                              OOOO",
"OO                                OOOO",
"OO                                OOOO",
"OO                                  OO",
"OO                                  OO",
"OO                                  OO",
"OO                                  OO",
"                                    OO",
"                                    OO",
"                                      ",
"                                      ",
"                                      ",
"                                      ",
"                                      ",
"                                      ",
"                                      ",
"                                      ",
"                                      ",
"                                      ",
"                                      ",
"                                      ",
"OO  OO                          OO  OO",
"OO  OO                          OO  OO",
"OOOOOO  OOOOOO  ....  OOOOOOOOOOOOOOOO",
"OOOOOO  OOOOOO  ....  OOOOOOOOOOOOOOOO",
"OOOOOOOOOO              OOOOOOOOOOOOOO",
"OOOOOOOOOO              OOOOOOOOOOOOOO",
"OOOOOO      oooooooooooo      OOOOOOOO",
"OOOOOO      oooooooooooo      OOOOOOOO",
"OOOO  oo  oooooooooooooooo  oo  OOOOOO",
"OOOO  oo  oooooooooooooooo  oo  OOOOOO",
"OO  oo    XXXXXXXXXXXXXXXXXX  oo  OOOO",
"OO  oo    XXXXXXXXXXXXXXXXXX  oo  OOOO",
"OO  oo  oooooooooooooooooooo  oo  OOOO",
"OO  oo  oooooooooooooooooooo  oo  OOOO",
"OO      XXXXXXXXXXXXXXXXXXXX      OOOO",
"OO      XXXXXXXXXXXXXXXXXXXX      OOOO",
"OO  ..  oooooooooooooooooooo  ..  OOOO",
"OO  ..  oooooooooooooooooooo  ..  OOOO",
"OO      oooooooooooooooooooo      OOOO",
"OO      oooooooooooooooooooo      OOOO",
"OOOOOO  oooooooo      oooooo  OOOOOOOO",
"OOOOOO  oooooooo      oooooo  OOOOOOOO",
"OOOOOO  oooooooo  OO  oooooo  OOOOOOOO",
"OOOOOO  oooooooo  OO  oooooo  OOOOOOOO",
"OOOOOO            OO          OOOOOOOO",
"OOOOOO            OO          OOOOOOOO",
"OOOOOOOOOO        OO      OOOOOOOOOOOO",
"OOOOOOOOOO        OO      OOOOOOOOOOOO",
"OOOOOOOO          OO          OOOOOOOO",
"OOOOOOOO          OO          OOOOOOOO"
};
