/* XPM */
static char *b01f9c00f7074b28c622c34df0062f0frIxX9u5WV05i4n28[] = {
/* columns rows colors chars-per-pixel */
"19 29 5 1 ",
"  c #3D120E",
". c #FFC90E",
"X c #E607F8",
"o c #67A4E0",
"O c #C386FF",
/* pixels */
"OOOOO         OOOOO",
"OOOO           OOOO",
"OOO             OOO",
"OO               OO",
"O                OO",
"O                 O",
"O                 O",
"                  O",
"                   ",
"                   ",
"                   ",
"                   ",
"                   ",
"                   ",
"O O             O O",
"OOO OOO .. OOOOOOOO",
"OOOOO       OOOOOOO",
"OOO   oooooo   OOOO",
"OO o oooooooo o OOO",
"O o  XXXXXXXXX o OO",
"O o oooooooooo o OO",
"O   XXXXXXXXXX   OO",
"O . oooooooooo . OO",
"O   oooooooooo   OO",
"OOO oooo   ooo OOOO",
"OOO oooo O ooo OOOO",
"OOO      O     OOOO",
"OOOOO    O   OOOOOO",
"OOOO     O     OOOO"
};
