/* XPM */
static char *result[] = {
/* columns rows colors chars-per-pixel */
"38 40 6 1 ",
"  c black",
". c #3A3948",
"X c #A77052",
"o c #22B14C",
"O c #DBB100",
"+ c None",
/* pixels */
"++++++    ++++++++++++      ++++++++++",
"++++++    ++++++++++++      ++++++++++",
"++++++++      ++++++  oo  ++++++++++++",
"++++++++      ++++++  oo  ++++++++++++",
"        ++  oo  ++  oo  ++++      ++++",
"        ++  oo  ++  oo  ++++      ++++",
"++  oooo  ..oooo  ..oo      oo  ++++++",
"++  oooo  ..oooo  ..oo      oo  ++++++",
"++++  oooo    oo..oo..  oo..oooo  ++  ",
"++++  oooo    oo..oo..  oo..oooo  ++  ",
"++++++  ..oooo..oo....oo..oo      ++++",
"++++++  ..oooo..oo....oo..oo      ++++",
"++++++++    ....oo..oo..oo..oooo    ++",
"++++++++    ....oo..oo..oo..oooo    ++",
"++++++++++++  ..oo....oo..      ++++++",
"++++++++++++  ..oo....oo..      ++++++",
"++++++++    OO    ..oo..  ++++++  ++++",
"++++++++    OO    ..oo..  ++++++  ++++",
"++++++  ..XXOOOOXX  ..      ++++++++++",
"++++++  ..XXOOOOXX  ..      ++++++++++",
"++++++  OOOO....OOOOOOOOXXXX  ++++++++",
"++++++  OOOO....OOOOOOOOXXXX  ++++++++",
"++++  XXXX..  OO........OOOOXX  ++++++",
"++++  XXXX..  OO........OOOOXX  ++++++",
"++++  OO        OOOOOOOO  XXOO  ++++++",
"++++  OO        OOOOOOOO  XXOO  ++++++",
"++++  OOOOOO..  XXXXOO      OO  ++++++",
"++++  OOOOOO..  XXXXOO      OO  ++++++",
"++++  XXXXOOOO..OOOO    OOOO..  ++++++",
"++++  XXXXOOOO..OOOO    OOOO..  ++++++",
"++++  OO  XXOOOOOOOOOOXXXXXXOO  ++++++",
"++++  OO  XXOOOOOOOOOOXXXXXXOO  ++++++",
"++    OOOO      OOOOOOOOOO  XX  ++++++",
"++    OOOO      OOOOOOOOOO  XX  ++++++",
"++++    OO  ..    OO..    OO  ++  ++++",
"++++    OO  ..    OO..    OO  ++  ++++",
"  ++++                  ..XX  ++++++  ",
"  ++++                  ..XX  ++++++  ",
"++++++++++++++++                ++++++",
"++++++++++++++++                ++++++"
};
