/* XPM */
static char *result[] = {
/* columns rows colors chars-per-pixel */
"60 60 9 1 ",
"  c #3D120E",
". c #321A11",
"X c #170D2B",
"o c #703238",
"O c #1B1548",
"+ c #1B215A",
"@ c #8E350E",
"# c #A64A00",
"$ c #C65829",
/* pixels */
"OOOOOOOOOOOOOOOOOOOOOOOOOOOOOOOOOOOOOOOOOOOOOOOOXXXOOOOOOOOO",
"OOOOOOOOOOOOOOOOOOOOOOOOOOOOOOOOOOOOOOOOOOOOOOOOXXXOOOOOOOOO",
"OOOOOOOOOOOOOOOOOOOOOOOOOOOOOOOOOOOOOOOOOOOOOOOOXXXOOOOOOOOO",
"OOOOOOOOOOOOOOOOOOOOOOOO+++OOOOOOOOOOOOOOOOOOOOOOOOOOOOOOOOO",
"OOOOOOOOOOOOoo................................ooOOOOOOOOOOOO",
"OOOOOOOOOOOOo.$$$$$$$$$$$$$$$$$$$$$$$$$$$$$$$$.oOOOOOOOOOOOO",
"OOOOOOOOOXXX.$$$$$$$$$$$$$$$$$$$$$$$$$$$$$$$$$$.XXXOOOOOOOOO",
"OOOOOOOOOXXX.$$$$$$$$$$$$$$$$$$$$$$$$$$$$$$$$$$.XXXOOOOOOOOO",
"OOOOOOOOOXXX.$$                              $$.XXXOOOOOOOOO",
"OOOOOOOOOOOO.$$ @@@@@                        $$.OOOOOOOOOOOO",
"OOOOOOOOOOOO.$$ @@@@@@@@@@@@                 $$.OOOOOOOOOOOO",
"OOOOOOOOOOOO.$$ @@@@@@@@@@@@@@@@@@@.         $$.OOOOOOOOOOOO",
"OOOOOOOOOOOO.$$ @@@@#@@@@@@@@@@@@@@@@@@@@@   $$.OOOXXXOOOOOO",
"OOOOOOOOOOOO.$$ @@@#@#######@@@@@@@@@@@@@@@o $$.OOOXXXOOOOOO",
"OOOOOOOOOOOO.$$ @@@#@@@@@@@@#######@@@@@@@@@ $$.OOOXXXOOOOOO",
"OOOOOOOOOOOO.$$ @@@#@@###@@@@@@@@@@#####@@@@ $$.OOOOOOOOOOOO",
"OOOOOOOOOOOO.$$ @@@#@@######@@@@@@@@@@@@#@@@ $$.OOOOOOOOOOOO",
"OOOOOOOOOOOO.$$ @@@#@@######@@@@@@@@@@@@#@@@ $$.OOOOOOOOOOOO",
"OOOOOOOOOOOO.$$ @@@#@@######@@@###@@@@@@#@@@ $$.OOOOOOOOOOOO",
"OOOOOOOOOOOO.$$ @@@#@@######@@@######@@@#@@@ $$.OOOOOOOOOOOO",
"OOOOOOOOOOOO.$$ @@@#@@######@@@######@@@#@@@ $$.OOOOOOOOOOOO",
"OOOOOOOOOOOO.$$ @@@#@@######@@@######@@@#@@@ $$.OOOOOOOOOXXX",
"OOOOOOOOOOOO.$$ @@@#@@######@@@######@@@#@@@ $$.OOOOOOOOOXXX",
"OOOOOOOOOOOO.$$ @@@#@@######@@@######@@@#@@@ $$.OOOOOOOOOXXX",
"OOOOOOOOOOOO.$$ @@@#@@######@@@######@@@#@@@ $$.OOOOOOOOOOOO",
"OOOOOOOOOOOO.$$ @@@#@@######@@@######@@@#@@@ $$.OOOOOOOOOOOO",
"OOOOOOOOOOOO.$$ @@@#@@######@@@######@@@#@@@ $$.OOOOOOOOOOOO",
"OOOOOOOOOOOO.$$ @@@#@@######@@@######@@@#@@@ $$.OOOOOOOOOOOO",
"OOOOOOOOOOOO.$$ @@@#@@######@@@######@@@#@@@ $$.OOOOOOOOOOOO",
"OOOOOOOOOOOO.$$ @@@#@@######@@@######@@@#@@@ $$.OOOOOOOOOOOO",
"OOOOOOXXXXXX.$$ @@@#@@######@@@######@@@#@@@ $$.OOOOOOOOOOOO",
"OOOOOOXXXXXX.$$ @@@#@@######@@@######@@@#@@@ $$.OOOOOOOOOOOO",
"OOOOOOXXXXXX.$$ @@@#@@######@@@######@   @@@ $$.OOOOOOOOOOOO",
"OOOOOOOOOOOO.$$ @@@#@@######@@@###### @$$ o@ $$.XXXOOOOOOOOO",
"OOOOOOOOOOOO.$$ @@@#@@######@@@###### $$$$ @ $$.XXXOOOOOOOOO",
"OOOOOOOOOOOO.$$ @@@#@@######@@@######  $$$ @ $$.XXXOOOOOOOOO",
"OOOOOOOOOOOO.$$ @@@#@@######@@@######  $$  @ $$.OOOOOO+++OOO",
"OOOOOOOOOOOO.$$ @@@#@@######@@@###### $  @ @ $$.OOOOOO+++OOO",
"OOOOOOOOOOOO.$$ @@@#@@######@@@###### $@$$ @ $$.OOOOOO+++OOO",
"XXXOOOOOOOOO.$$ @@@#@@######@@@###### $$ $ @ $$.OOOOOOOOOXXX",
"XXXOOOOOOOOO.$$ @@@#@@######@@@######   $$ @ $$.OOOOOOOOOXXX",
"XXXOOOOOOOOO.$$ @@@#@@######@@@######@@@  @@ $$.OOOOOOOOOXXX",
"OOOOOOOOOOOO.$$ @@@#@@######@@@######@@@#@@@ $$.OOOOOOOOOOOO",
"OOOOOOOOOOOO.$$ @@@#@@######@@@######@@@#@@@ $$.OOOOOOOOOOOO",
"OOOOOOOOOOOO.$$ @@@#@@######@@@######@@@#@@@ $$.OOOOOOOOOOOO",
"OOOOOOOOOXXX.$$ @@@#@@######@@@######@@@#@@@ $$.OOOOOOOOOOOO",
"OOOOOOOOOXXX.$$ @@@#@@######@@@######@@@#@@@ $$.OOOOOOOOOOOO",
"OOOOOOOOOXXX.$$ @@@#@@@@####@@@######@@@#@@@ $$.OOOOOOOOOOOO",
"OOOOOOOOOOOO.$$ @@@#@@@@@@@@@@@@@@###@@@#@@@ $$.OOOXXXXXXXXX",
"OOOOOOOOOOOO$$$ @@@@#@@@@@@@@@@@@@@@@@@@#@@@ $$$OOOXXXXXXXXX",
"OOOOOOOOOOOO$$$ @@@@@#######@@@@@@@@@@@@#@@@ $$$OOOXXXXXXXXX",
"OOOOOO+++OOO$$$ .....@@@@@@@#######@@@@@#@@@ $$$OOOOOOOOOOOO",
"OOOOOO+++OOO...oooooo.......@@@@@@@#####@@@@ ...OOOOOOOOOOOO",
"OOOOOO+++OOOOOOOOOOOOOOOOOOO.......@@@@@@@@@.OOOOOOOOOOOOOOO",
"OOOOOOOOOOOOOOOXXXOOOOOOOOOOOOOOOOO......@@o OOOOOOOOOOOOOOO",
"OOOOOOOOOOOOOOOXXXOOOOOOOOOOOOOOOOOOOOO++...OOOOOOOOOOOOOOOO",
"OOOOOOOOOOOOOOOXXXOOOOOOOOOOOOOOOOOOOOO+++OOOOOOOOOOOOOOOOOO",
"OOOOOOOOOOOO+++OOOOOOOOOOOOOOOOOOOOOOOOOOOOOOOOOOOOOOOOOOOOO",
"OOOOOOOOOOOO+++OOOOOOOOOOOOOOOOOOOOOOOOOOOOOOOOOOOOOOOOOOOOO",
"OOOOOOOOOOOO+++OOOOOOOOOOOOOOOOOOOOOOOOOOOOOOOOOOOOOOOOOOOOO"
};
