/* XPM */
static char *result[] = {
/* columns rows colors chars-per-pixel */
"60 60 9 1 ",
"  c #3D120E",
". c #321A11",
"X c #170D2B",
"o c #703238",
"O c #1B1548",
"+ c #1B215A",
"@ c #8E350E",
"# c #A64A00",
"$ c #C65829",
/* pixels */
"OOOOOOOOOOOOOOOOOOOOOOOOOOOOOOOOOOOOOOOOOOOOOOOOXXXOOOOOOOOO",
"OOOOOOOOOOOOOOOOOOOOOOOOOOOOOOOOOOOOOOOOOOOOOOOOXXXOOOOOOOOO",
"OOOOOOOOOOOOOOOOOOOOOOOOOOOOOOOOOOOOOOOOOOOOOOOOXXXOOOOOOOOO",
"OOOOOOOOOOOOOOOOOOOOOOOO+++OOOOOOOOOOOOOOOOOOOOOOOOOOOOOOOOO",
"OOOOOOOOOOOOOOOOOOOOOOOO+++OOOOOOOOOOOOOOOOOOOOOOOOOOOOOOOOO",
"OOOOOOOOOOOOoo................................ooOOOOOOOOOOOO",
"OOOOOOOOOXXXo.$$$$$$$$$$$$$$$$$$$$$$$$$$$$$$$$.oXXXOOOOOOOOO",
"OOOOOOOOOXXX.$$$$$$$$$$$$$$$$$$$$$$$$$$$$$$$$$$.XXXOOOOOOOOO",
"OOOOOOOOOXXX.$$$$$$$$$$$$$$$$$$$$$$$$$$$$$$$$$$.XXXOOOOOOOOO",
"OOOOOOOOOOOO.$$                              $$.OOOOOOOOOOOO",
"OOOOOOOOOOOO.$$ @@@@@@@@@@@@@@@@@@@@@@@@@@@o $$.OOOOOOOOOOOO",
"OOOOOOOOOOOO.$$ @@@@@@@@@@@@@@@@@@@@@@@@@@@@ $$.OOOOOOOOOOOO",
"OOOOOOOOOOOO.$$ @@@@@@@@@@@@@@@@@@@@@@@@@@@@ $$.OOOXXXOOOOOO",
"OOOOOOOOOOOO.$$ @@@@####################@@@@ $$.OOOXXXOOOOOO",
"OOOOOOOOOOOO.$$ @@@#@@@@@@@@@@@@@@@@@@@@#@@@ $$.OOOXXXOOOOOO",
"OOOOOOOOOOOO.$$ @@@#@@@####@@@@@####@@@@#@@@ $$.OOOOOOOOOOOO",
"OOOOOOOOOOOO.$$ @@@#@@######@@@######@@@#@@@ $$.OOOOOOOOOOOO",
"OOOOOOOOOOOO.$$ @@@#@@######@@@######@@@#@@@ $$.OOOOOOOOOOOO",
"OOOOOOOOOOOO.$$ @@@#@@######@@@######@@@#@@@ $$.OOOOOOOOOOOO",
"OOOOOOOOOOOO.$$ @@@#@@######@@@######@@@#@@@ $$.OOOOOOOOOOOO",
"OOOOOOOOOOOO.$$ @@@#@@######@@@######@@@#@@@ $$.OOOOOOOOOOOO",
"OOOOOOOOOOOO.$$ @@@#@@######@@@######@@@#@@@ $$.OOOOOOOOOXXX",
"OOOOOOOOOOOO.$$ @@@#@@######@@@######@@@#@@@ $$.OOOOOOOOOXXX",
"OOOOOOOOOOOO.$$ @@@#@@######@@@######@@@#@@@ $$.OOOOOOOOOXXX",
"OOOOOOOOOOOO.$$ @@@#@@######@@@######@@@#@@@ $$.OOOOOOOOOOOO",
"OOOOOOOOOOOO.$$ @@@#@@######@@@######@@@#@@@ $$.OOOOOOOOOOOO",
"OOOOOOOOOOOO.$$ @@@#@@######@@@######@@@#@@@ $$.OOOOOOOOOOOO",
"OOOOOOOOOOOO.$$ @@@#@@######@@@######@@@#@@@ $$.OOOOOOOOOOOO",
"OOOOOOOOOOOO.$$ @@@#@@######@@@######@@@#@@@ $$.OOOOOOOOOOOO",
"OOOOOOOOOOOO.$$ @@@#@@######@@@######@@@#@@@ $$.OOOOOOOOOOOO",
"OOOOOOXXXXXX.$$ @@@#@@######@@@#######    o@ $$.OOOOOOOOOOOO",
"OOOOOOXXXXXX.$$ @@@#@@######@@@######  $$  @ $$.OOOOOOOOOOOO",
"OOOOOOXXXXXX.$$ @@@#@@######@@@###### $$$$ @ $$.OOOOOOOOOOOO",
"OOOOOOOOOOOO.$$ @@@#@@######@@@###### $$$$ @ $$.XXXOOOOOOOOO",
"OOOOOOOOOOOO.$$ @@@#@@######@@@######  $$  @ $$.XXXOOOOOOOOO",
"OOOOOOOOOOOO.$$ @@@#@@######@@@###### $  $ @ $$.XXXOOOOOOOOO",
"OOOOOOOOOOOO.$$ @@@#@@######@@@###### $$$$ @ $$.OOOOOO+++OOO",
"OOOOOOOOOOOO.$$ @@@#@@######@@@###### $  $ @ $$.OOOOOO+++OOO",
"OOOOOOOOOOOO.$$ @@@#@@######@@@###### $$$$ @ $$.OOOOOO+++OOO",
"XXXOOOOOOOOO.$$ @@@#@@######@@@######      @ $$.OOOOOOOOOXXX",
"XXXOOOOOOOOO.$$ @@@#@@######@@@######@@@#@@@ $$.OOOOOOOOOXXX",
"XXXOOOOOOOOO.$$ @@@#@@######@@@######@@@#@@@ $$.OOOOOOOOOXXX",
"OOOOOOOOOOOO.$$ @@@#@@######@@@######@@@#@@@ $$.OOOOOOOOOOOO",
"OOOOOOOOOOOO.$$ @@@#@@######@@@######@@@#@@@ $$.OOOOOOOOOOOO",
"OOOOOOOOOOOO.$$ @@@#@@######@@@######@@@#@@@ $$.OOOOOOOOOOOO",
"OOOOOOOOOXXX.$$ @@@#@@######@@@######@@@#@@@ $$.OOOOOOOOOOOO",
"OOOOOOOOOXXX.$$ @@@#@@######@@@######@@@#@@@ $$.OOOOOOOOOOOO",
"OOOOOOOOOXXX.$$ @@@#@@######@@@######@@@#@@@ $$.OOOOOOOOOOOO",
"OOOOOOOOOOOO.$$ @@@#@@@####@@@@@####@@@@#@@@ $$.OOOXXXXXXXXX",
"OOOOOOOOOOOO.$$ @@@#@@@@@@@@@@@@@@@@@@@@#@@@ $$.OOOXXXXXXXXX",
"OOOOOOOOOOOO$$$ @@@@####################@@@@ $$$OOOXXXXXXXXX",
"OOOOOO+++OOO$$$ @@@@@@@@@@@@@@@@@@@@@@@@@@@o $$$OOOOOOOOOOOO",
"OOOOOO+++OOO$$$ ............................ $$$OOOOOOOOOOOO",
"OOOOOO+++OOO...oooooooooooooooooooooooooooooo...OOOOOOOOOOOO",
"OOOOOOOOOOOOOOOXXXOOOOOOOOOOOOOOOOOOOOO+++OOOOOOOOOOOOOOOOOO",
"OOOOOOOOOOOOOOOXXXOOOOOOOOOOOOOOOOOOOOO+++OOOOOOOOOOOOOOOOOO",
"OOOOOOOOOOOOOOOXXXOOOOOOOOOOOOOOOOOOOOO+++OOOOOOOOOOOOOOOOOO",
"OOOOOOOOOOOO+++OOOOOOOOOOOOOOOOOOOOOOOOOOOOOOOOOOOOOOOOOOOOO",
"OOOOOOOOOOOO+++OOOOOOOOOOOOOOOOOOOOOOOOOOOOOOOOOOOOOOOOOOOOO",
"OOOOOOOOOOOO+++OOOOOOOOOOOOOOOOOOOOOOOOOOOOOOOOOOOOOOOOOOOOO"
};
