/* XPM */
static char *result[] = {
/* columns rows colors chars-per-pixel */
"60 60 8 1 ",
"  c black",
". c #170D2B",
"X c #1B1548",
"o c #362F79",
"O c #053DAB",
"+ c #3287F9",
"@ c #7BFBFE",
"# c white",
/* pixels */
"XXXXXXXXXXXXXXXXXXXXXXXXXXXOOOOOOOOOOOOXXXXXXXXX...XXXXXXXXX",
"XXXXXXXXXXXXXXXXXXXXXXXXXXXOOOOOOOOOOOOXXXXXXXXX...XXXXXXXXX",
"XXXXXXXXXXXXXXXXXXXXXXXXXXXOOOOOOOOOOOOXXXXXXXXX...XXXXXXXXX",
"XXXXXXXXXXXXXXXXXXXXXXXXOOO++++++++++++OOOXXXXXXXXXXXXXXXXXX",
"XXXXXXXXXXXXXXXXXXXXXXXXOOO++++++++++++OOOXXXXXXXXXXXXXXXXXX",
"XXXXXXXXXXXXXXXXXXXXXXXXOOO++++++++++++OOOXXXXXXXXXXXXXXXXXX",
"XXXXXXXXX...XXXXXXXXXOOO++++++@@@@@@++++++OOO   ...XXXXXXXXX",
"XXXXXXXXX...XXXXXXXXXOOO++++++@@@@@@++++++OOO   ...XXXXXXXXX",
"XXXXXXXXX...XXXXXXXXXOOO++++++@@@@@@++++++OOO   ...XXXXXXXXX",
"XXXXXXXXXXXXXXXXXXOOO+++++++++@@@@@@+++++++++@@@   XXXXXXXXX",
"XXXXXXXXXXXXXXXXXXOOO+++++++++@@@@@@+++++++++@@@   XXXXXXXXX",
"XXXXXXXXXXXXXXXXXXOOO+++++++++@@@@@@+++++++++@@@   XXXXXXXXX",
"XXXXXXXXXXXXXXXOOO+++@@@+++++++++++++++######+++OOO   XXXXXX",
"XXXXXXXXXXXXXXXOOO+++@@@+++++++++++++++######+++OOO   XXXXXX",
"XXXXXXXXXXXXXXXOOO+++@@@+++++++++++++++######+++OOO   XXXXXX",
"XXXXXXXXXXXXOOO+++++++++###############++++++++++++OOO   XXX",
"XXXXXXXXXXXXOOO+++++++++###############++++++++++++OOO   XXX",
"XXXXXXXXXXXXOOO+++++++++###############++++++++++++OOO   XXX",
"XXXXXXXXXOOO++++++######@@@@@@@@@@@@@@@@@@++++++++++++   XXX",
"XXXXXXXXXOOO++++++######@@@@@@@@@@@@@@@@@@++++++++++++   XXX",
"XXXXXXXXXOOO++++++######@@@@@@@@@@@@@@@@@@++++++++++++   XXX",
"XXXXXXOOO++++++###@@@@@@###############@@@@@@######+++OOO   ",
"XXXXXXOOO++++++###@@@@@@###############@@@@@@######+++OOO   ",
"XXXXXXOOO++++++###@@@@@@###############@@@@@@######+++OOO   ",
"XXXOOO@@@+++###@@@@@@###OOOOOOOOOOOOOOO###@@@######+++OOO   ",
"XXXOOO@@@+++###@@@@@@###OOOOOOOOOOOOOOO###@@@######+++OOO   ",
"XXXOOO@@@+++###@@@@@@###OOOOOOOOOOOOOOO###@@@######+++OOO   ",
"XXXOOO+++@@@###@@@###OOO+++++++++++++++OOO###@@@++++++OOO   ",
"XXXOOO+++@@@###@@@###OOO+++++++++++++++OOO###@@@++++++OOO   ",
"XXXOOO+++@@@###@@@###OOO+++++++++++++++OOO###@@@++++++OOO   ",
"XXXOOO+++###@@@###OOO###@@@+++++++++@@@###OOO###+++OOOOOO   ",
"XXXOOO+++###@@@###OOO###@@@+++++++++@@@###OOO###+++OOOOOO   ",
"XXXOOO+++###@@@###OOO###@@@+++++++++@@@###OOO###+++OOOOOO   ",
"   ++++++###@@@###+++######@@@@@@@@@######+++###+++@@@OOO   ",
"   ++++++###@@@###+++######@@@@@@@@@######+++###+++@@@OOO   ",
"   ++++++###@@@###+++######@@@@@@@@@######+++###+++@@@OOO   ",
"   ++++++###@@@###+++#####################+++###+++OOOOOO   ",
"   ++++++###@@@###+++#####################+++###+++OOOOOO   ",
"   ++++++###@@@###+++#####################+++###+++OOOOOO   ",
"   ++++++###@@@@@@###+++++++++++++++++++++###@@@+++OOOOOO   ",
"   ++++++###@@@@@@###+++++++++++++++++++++###@@@+++OOOOOO   ",
"   ++++++###@@@@@@###+++++++++++++++++++++###@@@+++OOOOOO   ",
"   ++++++@@@######@@@######+++@@@+++######@@@@@@OOO+++OOO   ",
"   ++++++@@@######@@@######+++@@@+++######@@@@@@OOO+++OOO   ",
"   ++++++@@@######@@@######+++@@@+++######@@@@@@OOO+++OOO   ",
"   ++++++@@@######@@@######@@@###@@@######@@@+++OOO+++OOO   ",
"   ++++++@@@######@@@######@@@###@@@######@@@+++OOO+++OOO   ",
"   ++++++@@@######@@@######@@@###@@@######@@@+++OOO+++OOO   ",
"   ++++++@@@+++@@@@@@######@@@###@@@######@@@OOO++++++OOO   ",
"   ++++++@@@+++@@@@@@######@@@###@@@######@@@OOO++++++OOO   ",
"   ++++++@@@+++@@@@@@######@@@###@@@######@@@OOO++++++OOO   ",
"   ++++++@@@+++###@@@###+++OOO         ++++++   OOOOOO   XXX",
"   ++++++@@@+++###@@@###+++OOO         ++++++   OOOOOO   XXX",
"   ++++++@@@+++###@@@###+++OOO         ++++++   OOOOOO   XXX",
"XXX         +++++++++@@@      ooooooXXX      XXX      XXXXXX",
"XXX         +++++++++@@@      ooooooXXX      XXX      XXXXXX",
"XXX         +++++++++@@@      ooooooXXX      XXX      XXXXXX",
"XXXooooooXXX            ooooooooooooXXXooooooooooooXXXoooooo",
"XXXooooooXXX            ooooooooooooXXXooooooooooooXXXoooooo",
"XXXooooooXXX            ooooooooooooXXXooooooooooooXXXoooooo"
};
