/* XPM */
static char *result[] = {
/* columns rows colors chars-per-pixel */
"60 60 7 1 ",
"  c black",
". c #170D2B",
"X c #1B1548",
"o c #1B215A",
"O c #FFF200",
"+ c #9BFD71",
"@ c white",
/* pixels */
"XXXXXXXXXXXXXXXXX        XXXXXXXXXX        XXXXX...XXXXXXXXX",
"XXXXXXXXXXXXXXXXX        XXXXXXXXXX        XXXXX...XXXXXXXXX",
"XXXXXXXXXXXXXXX    @@@@              @@@@    XXX...XXXXXXXXX",
"XXXXXXXXXXXXXXX    @@@@              @@@@    XXXXXXXXXXXXXXX",
"XXXXXXXXXXXXX  @@@@@@@@@@  @@@@@@  @@@@@@@@@@  XXXXXXXXXXXXX",
"XXXXXXXXXXXXX  @@@@@@@@@@  @@@@@@  @@@@@@@@@@  XXXXXXXXXXXXX",
"XXXXXXXXX..  @@@@@@    @@@@@@@@@@@@@@    @@@@@@  ..XXXXXXXXX",
"XXXXXXXXX..  @@@@@@    @@@@@@@@@@@@@@    @@@@@@  ..XXXXXXXXX",
"XXXXXXXXX  @@@@@@        @@  @@  @@        @@@@@@  XXXXXXXXX",
"XXXXXXXXX  @@@@@@        @@  @@  @@        @@@@@@  XXXXXXXXX",
"XXXXXXX  @@@@  @@@@          @@          @@@@  @@@@  XXXXXXX",
"XXXXXXX  @@@@  @@@@          @@          @@@@  @@@@  XXXXXXX",
"XXXXXXX  @@    @@@@        @@@@@@        @@@@    @@  .XXXXXX",
"XXXXXXX  @@    @@@@        @@@@@@        @@@@    @@  .XXXXXX",
"XXXXXXX  @@@@  @@@@@@@@@@@@@@@@@@@@@@@@@@@@@@  @@@@  .XXXXXX",
"XXXXXXX  @@@@  @@@@@@@@@@@@@@@@@@@@@@@@@@@@@@  @@@@  XXXXXXX",
"XXXXXXX  @@@@          @@@@@@@@@@@@@@          @@@@  XXXXXXX",
"XXXXXXX  @@@@          @@@@@@@@@@@@@@          @@@@  XXXXXXX",
"XXXXXXX  @@@@@@  @@                      @@  @@@@@@  XXXXXXX",
"XXXXXXX  @@@@@@  @@                      @@  @@@@@@  XXXXXXX",
"XXXXXXXXX  @@@@  @@  @@  @@@@  @@@@  @@  @@  @@@@  XXXXXXXXX",
"XXXXXXXXX  @@@@  @@  @@  @@@@  @@@@  @@  @@  @@@@  XXXXXX...",
"XXXXXXXXX  @@@@      @@  @@@@  @@@@  @@      @@@@  XXXXXX...",
"XXXXXXXXX  @@@@      @@  @@@@  @@@@  @@      @@@@  XXXXXX...",
"XXXXXXXXX  @@@@                              @@@@  XXXXXXXXX",
"XXXXXXXXX  @@@@                              @@@@  XXXXXXXXX",
"XXXXXXXXX  @@@@                              @@@@  XXXXXXXXX",
"XXXXXXXXX  @@@@                              @@@@  XXXXXXXXX",
"XXXXXXXXX  @@@@    @@                  @@    @@@@  XXXXXXXXX",
"XXXXXXXXX  @@@@    @@                  @@    @@@@  XXXXXXXXX",
"XXXXXX...  @@@@    @@  @@  @@  @@  @@  @@    @@@@  XXXXXXXXX",
"XXXXXX...  @@@@    @@  @@  @@  @@  @@  @@    @@@@  XXXXXXXXX",
"XXXXXX...  @@@@@@      @@  @@  @@  @@      @@@@@@  XXXXXXXXX",
"XXXXXXXXX  @@@@@@      @@  @@  @@  @@      @@@@@@  XXXXXXXXX",
"XXXXXXXXX    @@@@@@                    @@@@@@@@    XXXXXXXXX",
"XXXXXXXXX    @@@@@@                    @@@@@@@@    XXXXXXXXX",
"XXXXXXXXX      @@@@@@@@@@@@@@@@@@@@@@@@@@@@@@      XXXoooXXX",
"XXXXXXXXX      @@@@@@@@@@@@@@@@@@@@@@@@@@@@@@      XXXoooXXX",
"XXXXXXXXXXX      @@@@@@@@@@@@@@@@@@@@@@@@@@      XXXXXoooXXX",
"...XXXXXXXX      @@@@@@@@@@@@@@@@@@@@@@@@@@      XXXXXXXX...",
"...XXXXXXXXXX        @@@@@@@@@@@@@@@@@@          XXXXXXXX...",
"...XXXXXXXXXX        @@@@@@@@@@@@@@@@@@          XXXXXXXX...",
"XXXXXXXXXXXXX  OOOOOO                  OOOOOO  XXXXXXXXXXXXX",
"XXXXXXXXXXXXX  OOOOOO                  OOOOOO  XXXXXXXXXXXXX",
"XXXXXXXXXXXXX  OOOOOOOOOOOO  ++  OOOOOOOOOOOO  XXXXXXXXXXXXX",
"XXXXXXXXX...X  OOOOOOOOOOOO  ++  OOOOOOOOOOOO  XXXXXXXXXXXXX",
"XXXXXXXXX...XXX  OOOOOO      ++++    OOOOOO  XXXXXXXXXXXXXXX",
"XXXXXXXXX...XXX  OOOOOO      ++++    OOOOOO  XXXXXXXXXXXXXXX",
"XXXXXXXXXXXXXXXXX      .XXX  ++++  X.      XXXXXXXX.........",
"XXXXXXXXXXXXXXXXX      .XXX  ++++  X.      XXXXXXXX.........",
"XXXXXXXXXXXXXXXXXX......X  ++++  XXX...XXXXXXXXXXXX.........",
"XXXXXXoooXXXXXXXXXXXXXXXX  ++++  XXXXXXXXXXXXXXXXXXXXXXXXXXX",
"XXXXXXoooXXXXXXXXXXXXXXXX  ++  XXXXXXXXXXXXXXXXXXXXXXXXXXXXX",
"XXXXXXoooXXXXXXXXXXXXXXXX  ++  XXXXXXXXXXXXXXXXXXXXXXXXXXXXX",
"XXXXXXXXXXXXXXX...XXXXXXX  ++++  XXXXXXoooXXXXXXXXXXXXXXXXXX",
"XXXXXXXXXXXXXXX...XXXXXXX  ++++  XXXXXXoooXXXXXXXXXXXXXXXXXX",
"XXXXXXXXXXXXXXX...XXXXXXXXX  ++  XXXXXXoooXXXXXXXXXXXXXXXXXX",
"XXXXXXXXXXXXoooXXXXXXXXXXXX  ++  XXXXXXXXXXXXXXXXXXXXXXXXXXX",
"XXXXXXXXXXXXoooXXXXXXXXXXXX  ++++  XXXXXXXXXXXXXXXXXXXXXXXXX",
"XXXXXXXXXXXXoooXXXXXXXXXXXX  ++++  XXXXXXXXXXXXXXXXXXXXXXXXX"
};
