/* XPM */
static char *result[] = {
/* columns rows colors chars-per-pixel */
"42 42 6 1 ",
"  c black",
". c #FFF200",
"X c #9BFD71",
"o c #FEFFDF",
"O c #FAFEFE",
"+ c None",
/* pixels */
"++++++++++++      ++++++      ++++++++++++",
"++++++++++++      ++++++      ++++++++++++",
"++++++++++  ......      ......  ++++++++++",
"++++++++++  ......      ......  ++++++++++",
"++++++++  ....    oooooo    ....  ++++++++",
"++++++++  ....    oooooo    ....  ++++++++",
"++++          ooOOOOOOOOOOOO          ++++",
"++++          ooOOOOOOOOOOOO          ++++",
"++  ......  ooooOO  OO  OOOOoo  ......  ++",
"++  ......  ooooOO  OO  OOOOoo  ......  ++",
"  ........  ooooOOOOOOOOOOOOoo  ........  ",
"  ........  ooooOOOOOOOOOOOOoo  ........  ",
"++  ......  oooo  OOOOOO  oooo  ......  ++",
"++  ......  oooo  OOOOOO  oooo  ......  ++",
"++++      ..  oooo      oooo  ..      ++++",
"++++      ..  oooo      oooo  ..      ++++",
"++++++  ......  oooooooooo  ......  ++++++",
"++++++  ......  oooooooooo  ......  ++++++",
"++++  ..........          ..........  ++++",
"++++  ..........          ..........  ++++",
"++++  ............  XX  ............  ++++",
"++++  ............  XX  ............  ++++",
"++++++  ......      XXXX    ......  ++++++",
"++++++  ......      XXXX    ......  ++++++",
"++++++++      ++++  XXXX  ++      ++++++++",
"++++++++      ++++  XXXX  ++      ++++++++",
"++++++++++++++++  XXXX  ++++++++++++++++++",
"++++++++++++++++  XXXX  ++++++++++++++++++",
"++++++++++++++++  XX  ++++++++++++++++++++",
"++++++++++++++++  XX  ++++++++++++++++++++",
"++++++++++++++++  XXXX  ++++++++++++++++++",
"++++++++++++++++  XXXX  ++++++++++++++++++",
"++++++++++++++++++  XX  ++++++++++++++++++",
"++++++++++++++++++  XX  ++++++++++++++++++",
"++++++++++++++++++  XXXX  ++++++++++++++++",
"++++++++++++++++++  XXXX  ++++++++++++++++",
"++++++++++++++++++  XXXX  ++++++++++++++++",
"++++++++++++++++++  XXXX  ++++++++++++++++",
"++++++++++++++++  XXXXXX  ++++++++++++++++",
"++++++++++++++++  XXXXXX  ++++++++++++++++",
"++++++++++++++++++      ++++++++++++++++++",
"++++++++++++++++++      ++++++++++++++++++"
};
