/* XPM */
static char *_bc708f822624105a9d02dc278b7d729i7fIllqNjXpBQxF1[] = {
/* columns rows colors chars-per-pixel */
"21 21 6 1 ",
"  c black",
". c #FFF200",
"X c #9BFD71",
"o c #F15FF1",
"O c #FEFFDF",
"+ c #FAFEFE",
/* pixels */
"oooooo   ooo   oooooo",
"ooooo ...   ... ooooo",
"oooo ..  OOO  .. oooo",
"oo     O++++++     oo",
"o ... OO+ + ++O ... o",
" .... OO++++++O .... ",
"o ... OO +++ OO ... o",
"oo   . OO   OO .   oo",
"ooo ... OOOOO ... ooo",
"oo .....     ..... oo",
"oo ...... X ...... oo",
"ooo ...   XX  ... ooo",
"oooo   oo XX o   oooo",
"oooooooo XX ooooooooo",
"oooooooo X oooooooooo",
"oooooooo XX ooooooooo",
"ooooooooo X ooooooooo",
"ooooooooo XX oooooooo",
"ooooooooo XX oooooooo",
"oooooooo XXX oooooooo",
"ooooooooo   ooooooooo"
};
