/* XPM */
static char *result[] = {
/* columns rows colors chars-per-pixel */
"60 60 8 1 ",
"  c black",
". c #170D2B",
"X c #1B1548",
"o c #1B215A",
"O c #FFF200",
"+ c #9BFD71",
"@ c #FEFFDF",
"# c #FAFEFE",
/* pixels */
"XXXXXXXXXXXXXXXXX         XXXXXXXX         XXXXX...XXXXXXXXX",
"XXXXXXXXXXXXXXXXX         XXXXXXXX         XXXXX...XXXXXXXXX",
"XXXXXXXXXXXXXXXXX         XXXXXXXX         XXXXX...XXXXXXXXX",
"XXXXXXXXXXXXXX   OOOOOOOOO        OOOOOOOOO   XXXXXXXXXXXXXX",
"XXXXXXXXXXXXXX   OOOOOOOOO        OOOOOOOOO   XXXXXXXXXXXXXX",
"XXXXXXXXXXXXXX   OOOOOOOOO        OOOOOOOOO   XXXXXXXXXXXXXX",
"XXXXXXXXX..   OOOOOO      @@@@@@@@      OOOOOO   ..XXXXXXXXX",
"XXXXXXXXX..   OOOOOO      @@@@@@@@      OOOOOO   ..XXXXXXXXX",
"XXXXXXXXX..   OOOOOO      @@@@@@@@      OOOOOO   ..XXXXXXXXX",
"XXXXXX              @@@#################              XXXXXX",
"XXXXXX              @@@#################              XXXXXX",
"XXX   OOOOOOOO   @@@@@@###   ##   ######@@@   OOOOOOOO   XXX",
"XXX   OOOOOOOO   @@@@@@###   ##   ######@@@   OOOOOOOO   XXX",
"XXX   OOOOOOOO   @@@@@@###   ##   ######@@@   OOOOOOOO   XXX",
"   OOOOOOOOOOO   @@@@@@#################@@@   OOOOOOOOOOO   ",
"   OOOOOOOOOOO   @@@@@@#################@@@   OOOOOOOOOOO   ",
"   OOOOOOOOOOO   @@@@@@#################@@@   OOOOOOOOOOO   ",
"XXX   OOOOOOOO   @@@@@@   ########   @@@@@@   OOOOOOOO   XXX",
"XXX   OOOOOOOO   @@@@@@   ########   @@@@@@   OOOOOOOO   XXX",
"XXX   OOOOOOOO   @@@@@@   ########   @@@@@@   OOOOOOOO   XXX",
"XXXXXX        OOO   @@@@@@        @@@@@@   OOO        XXXXXX",
"XXXXXX        OOO   @@@@@@        @@@@@@   OOO        XXX...",
"XXXXXX        OOO   @@@@@@        @@@@@@   OOO        XXX...",
"XXXXXXXXX  OOOOOOOOO   @@@@@@@@@@@@@@   OOOOOOOOO  XXXXXX...",
"XXXXXXXXX  OOOOOOOOO   @@@@@@@@@@@@@@   OOOOOOOOO  XXXXXXXXX",
"XXXXXXXXX  OOOOOOOOO   @@@@@@@@@@@@@@   OOOOOOOOO  XXXXXXXXX",
"XXXXXX   OOOOOOOOOOOOOO              OOOOOOOOOOOOOO   XXXXXX",
"XXXXXX   OOOOOOOOOOOOOO              OOOOOOOOOOOOOO   XXXXXX",
"XXXXXX   OOOOOOOOOOOOOO              OOOOOOOOOOOOOO   XXXXXX",
"XXXXXX   OOOOOOOOOOOOOOOOO   ++   OOOOOOOOOOOOOOOOO   XXXXXX",
"XXXXXX   OOOOOOOOOOOOOOOOO   ++   OOOOOOOOOOOOOOOOO   XXXXXX",
"XXXXXX...  OOOOOOOOO         +++++      OOOOOOOOO  XXXXXXXXX",
"XXXXXX...  OOOOOOOOO         +++++      OOOOOOOOO  XXXXXXXXX",
"XXXXXXXXX  OOOOOOOOO         +++++      OOOOOOOOO  XXXXXXXXX",
"XXXXXXXXXXX         XXXXXX   +++++   ..X         ..XXXXXXXXX",
"XXXXXXXXXXX         XXXXXX   +++++   ..X         ..XXXXXXXXX",
"XXXXXXXXXXX         .XXXXX   +++++   XXX         XXXXXoooXXX",
"XXXXXXXXXXXXXXXXXX...XX   +++++   XXXXXXXXXXXXXXXXXXXXoooXXX",
"XXXXXXXXXXXXXXXXXX...XX   +++++   XXXXXXXXXXXXXXXXXXXXoooXXX",
"...XXXXXXXXXXXXXXXXXXXX   +++++   XXXXXXXXXXXXXXXXXXXXXXX...",
"...XXXXXXXXXXXXXXXXXXXX   +++  XXXXXXXXXXXXXXXXXXXXXXXXXX...",
"...XXXXXXXXXXXXXXXXXXXX   +++  XXXXXXXXXXXXXXXXXXXXXXXXXX...",
"XXXXXXXXXXXXXXXXXXXXXXX   +++  XXXXXXXXXXXXXXXXXXXXXXXXXXXXX",
"XXXXXXXXXXXXXXXXXXXXXXX   +++++   XXXXXXXXXXXXXXXXXXXXXXXXXX",
"XXXXXXXXXXXXXXXXXXXXXXX   +++++   XXXXXXXXXXXXXXXXXXXXXXXXXX",
"XXXXXXXXX...XXXXXXXXXXX   +++++   XXXXXXXX...XXXXXXXXXXXXXXX",
"XXXXXXXXX...XXXXXXXXXXXXXX   ++   XXXXXXXX...XXXXXXXXXXXXXXX",
"XXXXXXXXX...XXXXXXXXXXXXXX   ++   XXXXXXXX...XXXXXXXXXXXXXXX",
"XXXXXXXXXXXXXXXXXX......XX   ++   XX...XXXXXXXXXXXX.........",
"XXXXXXXXXXXXXXXXXX......XX   +++++   ..XXXXXXXXXXXX.........",
"XXXXXXXXXXXXXXXXXX......XX   +++++   ..XXXXXXXXXXXX.........",
"XXXXXXoooXXXXXXXXXXXXXXXXX   +++++   XXXXXXXXXXXXXXXXXXXXXXX",
"XXXXXXoooXXXXXXXXXXXXXXXXX   +++++   XXXXXXXXXXXXXXXXXXXXXXX",
"XXXXXXoooXXXXXXXXXXXXXXXXX   +++++   XXXXXXXXXXXXXXXXXXXXXXX",
"XXXXXXXXXXXXXXX...XXXXX   ++++++++   XXoooXXXXXXXXXXXXXXXXXX",
"XXXXXXXXXXXXXXX...XXXXX   ++++++++   XXoooXXXXXXXXXXXXXXXXXX",
"XXXXXXXXXXXXXXX...XXXXX   ++++++++   XXoooXXXXXXXXXXXXXXXXXX",
"XXXXXXXXXXXXoooXXXXXXXXXXX        XXXXXXXXXXXXXXXXXXXXXXXXXX",
"XXXXXXXXXXXXoooXXXXXXXXXXX        XXXXXXXXXXXXXXXXXXXXXXXXXX",
"XXXXXXXXXXXXoooXXXXXXXXXXX        XXXXXXXXXXXXXXXXXXXXXXXXXX"
};
