/* XPM */
static char *result[] = {
/* columns rows colors chars-per-pixel */
"40 40 3 1 ",
"  c #170D2B",
". c #1B1548",
"X c #1B215A",
/* pixels */
"................................  ......",
"................................  ......",
"................XX......................",
"................XX......................",
"......  ......XX......  ..  ..    ......",
"......  ......XX......  ..  ..    ......",
"....................  ..  ..............",
"....................  ..  ..............",
"......................  ....XX....  ....",
"......................  ....XX....  ....",
"..........  ......  ....................",
"..........  ......  ....................",
"........................................",
"........................................",
"..............................  ......  ",
"..............................  ......  ",
"........XX..............................",
"........XX..............................",
"........................XX..............",
"........................XX..............",
"....    ......  ........................",
"....    ......  ........................",
"........................  ......  ......",
"........................  ......  ......",
"............  ......................XX..",
"............  ......................XX..",
"  ....................................  ",
"  ....................................  ",
"........................................",
"........................................",
"......  ....................  ..........",
"......  ....................  ..........",
"............    ..    ..  ........      ",
"............    ..    ..  ........      ",
"....XX..................................",
"....XX..................................",
"..........  ..............XX............",
"..........  ..............XX............",
"........XX..............................",
"........XX.............................."
};
