/* XPM */
static char *_abdf0854c3649358e9292df550cb456PfQFUzB5HMRg0yBz[] = {
/* columns rows colors chars-per-pixel */
"20 20 3 1 ",
"  c #170D2B",
". c #1B1548",
"X c #1B215A",
/* pixels */
"................ ...",
"........X...........",
"... ...X... . .  ...",
".......... . .......",
"........... ..X.. ..",
"..... ... ..........",
"....................",
"............... ... ",
"....X...............",
"............X.......",
"..  ... ............",
"............ ... ...",
"...... ...........X.",
" .................. ",
"....................",
"... .......... .....",
"......  .  . ....   ",
"..X.................",
"..... .......X......",
"....X..............."
};
