/* XPM */
static char *result[] = {
/* columns rows colors chars-per-pixel */
"60 60 3 1 ",
"  c #170D2B",
". c #1B1548",
"X c #1B215A",
/* pixels */
"................................................   .........",
"................................................   .........",
"................................................   .........",
"........................XXX.................................",
"........................XXX.................................",
"........................XXX.................................",
".........   .........XXX.........   ...   ...      .........",
".........   .........XXX.........   ...   ...      .........",
".........   .........XXX.........   ...   ...      .........",
"..............................   ...   .....................",
"..............................   ...   .....................",
"..............................   ...   .....................",
".................................   ......XXX......   ......",
".................................   ......XXX......   ......",
".................................   ......XXX......   ......",
"...............   .........   ..............................",
"...............   .........   ..............................",
"...............   .........   ..............................",
"............................................................",
"............................................................",
"............................................................",
".............................................   .........   ",
".............................................   .........   ",
".............................................   .........   ",
"............XXX.............................................",
"............XXX.............................................",
"............XXX.............................................",
"....................................XXX.....................",
"....................................XXX.....................",
"....................................XXX.....................",
"......      .........   ....................................",
"......      .........   ....................................",
"......      .........   ....................................",
"....................................   .........   .........",
"....................................   .........   .........",
"....................................   .........   .........",
"..................   .................................XXX...",
"..................   .................................XXX...",
"..................   .................................XXX...",
"   ......................................................   ",
"   ......................................................   ",
"   ......................................................   ",
"............................................................",
"............................................................",
"............................................................",
".........   ..............................   ...............",
".........   ..............................   ...............",
".........   ..............................   ...............",
"..................      ...      ...   ............         ",
"..................      ...      ...   ............         ",
"..................      ...      ...   ............         ",
"......XXX...................................................",
"......XXX...................................................",
"......XXX...................................................",
"...............   .....................XXX..................",
"...............   .....................XXX..................",
"...............   .....................XXX..................",
"............XXX.............................................",
"............XXX.............................................",
"............XXX............................................."
};
