/* XPM */
static char *_46b8786f7d54a99e416d1a9316ff4b5oojGw1ZWDz4QnF0X[] = {
/* columns rows colors chars-per-pixel */
"20 20 6 1 ",
"  c black",
". c #400000",
"X c #808080",
"o c #C386FF",
"O c #C0C0C0",
"+ c white",
/* pixels */
"oooooooooooooooooooo",
"oooooooooooooooooooo",
"oooooooooooooooooooo",
"ooooo..........ooooo",
"oooo.++++++++++.oooo",
"ooo.+OOOOOOOOOO+.ooo",
"oo +OOOOOOOOOOOO+ oo",
"oo OOOOOOOOOOOOOO oo",
"oo OOOOOOOOOOOOOO oo",
"oo OOOOOOOOOOOOOO oo",
"oo OOOOOOOOOOOOOO oo",
"oo XOOOOOOOOOOOOX oo",
"ooo XOOOOOOOOOOX ooo",
"oooo XXXXXXXXXX oooo",
"ooooo          ooooo",
"oooooooooooooooooooo",
"oooooooooooooooooooo",
"oooooooooooooooooooo",
"oooooooooooooooooooo",
"oooooooooooooooooooo"
};
