/* XPM */
static char *result[] = {
/* columns rows colors chars-per-pixel */
"40 40 6 1 ",
"  c black",
". c #400000",
"X c #808080",
"o c #C0C0C0",
"O c white",
"+ c None",
/* pixels */
"++++++++++++++++++++++++++++++++++++++++",
"++++++++++++++++++++++++++++++++++++++++",
"++++++++++++++++++++++++++++++++++++++++",
"++++++++++++++++++++++++++++++++++++++++",
"++++++++++++++++++++++++++++++++++++++++",
"++++++++++++++++++++++++++++++++++++++++",
"++++++++++....................++++++++++",
"++++++++++....................++++++++++",
"++++++++..OOOOOOOOOOOOOOOOOOOO..++++++++",
"++++++++..OOOOOOOOOOOOOOOOOOOO..++++++++",
"++++++..OOooooooooooooooooooooOO..++++++",
"++++++..OOooooooooooooooooooooOO..++++++",
"++++  OOooooooooooooooooooooooooOO  ++++",
"++++  OOooooooooooooooooooooooooOO  ++++",
"++++  oooooooooooooooooooooooooooo  ++++",
"++++  oooooooooooooooooooooooooooo  ++++",
"++++  oooooooooooooooooooooooooooo  ++++",
"++++  oooooooooooooooooooooooooooo  ++++",
"++++  oooooooooooooooooooooooooooo  ++++",
"++++  oooooooooooooooooooooooooooo  ++++",
"++++  oooooooooooooooooooooooooooo  ++++",
"++++  oooooooooooooooooooooooooooo  ++++",
"++++  XXooooooooooooooooooooooooXX  ++++",
"++++  XXooooooooooooooooooooooooXX  ++++",
"++++++  XXooooooooooooooooooooXX  ++++++",
"++++++  XXooooooooooooooooooooXX  ++++++",
"++++++++  XXXXXXXXXXXXXXXXXXXX  ++++++++",
"++++++++  XXXXXXXXXXXXXXXXXXXX  ++++++++",
"++++++++++                    ++++++++++",
"++++++++++                    ++++++++++",
"++++++++++++++++++++++++++++++++++++++++",
"++++++++++++++++++++++++++++++++++++++++",
"++++++++++++++++++++++++++++++++++++++++",
"++++++++++++++++++++++++++++++++++++++++",
"++++++++++++++++++++++++++++++++++++++++",
"++++++++++++++++++++++++++++++++++++++++",
"++++++++++++++++++++++++++++++++++++++++",
"++++++++++++++++++++++++++++++++++++++++",
"++++++++++++++++++++++++++++++++++++++++",
"++++++++++++++++++++++++++++++++++++++++"
};
