/* XPM */
static char *result[] = {
/* columns rows colors chars-per-pixel */
"34 58 6 1 ",
"  c black",
". c #3D120E",
"X c #FFC90E",
"o c #E607F8",
"O c #67A4E0",
"+ c None",
/* pixels */
"++++++++..................++++++++",
"++++++++..................++++++++",
"++++........................++++++",
"++++........................++++++",
"++............................++++",
"++............................++++",
"................................++",
"................................++",
"................................++",
"................................++",
"......XX..XX......................",
"......XX..XX......................",
"++....XX..XXXX....................",
"++....XX..XXXX....................",
"++..XXXXXXXXXX....................",
"++..XXXXXXXXXX....................",
"++..XXXXXXXXXX....XXXX............",
"++..XXXXXXXXXX....XXXX............",
"++..XX    XXXX..XXXXXX............",
"++..XX    XXXX..XXXXXX............",
"..XXXXXXXXXXXX..XXXX..............",
"..XXXXXXXXXXXX..XXXX..............",
"..XXXXXXXXXXXXXXXX................",
"..XXXXXXXXXXXXXXXX................",
"..    XXXXXXXXXX................++",
"..    XXXXXXXXXX................++",
"++..XXXXXXXXXXXX............++..++",
"++..XXXXXXXXXXXX............++..++",
"++++..........XXXX....++..++++++++",
"++++..........XXXX....++..++++++++",
"++++++++++++..XXXX..++++++++++++++",
"++++++++++++..XXXX..++++++++++++++",
"++++++++++++........++++++++++++++",
"++++++++++++........++++++++++++++",
"++++++++++......OO....++++++++++++",
"++++++++++......OO....++++++++++++",
"++++++++..OOOOOOOO..OO..++++++++++",
"++++++++..OOOOOOOO..OO..++++++++++",
"++++++++..oooo..OO..oo..++++++++++",
"++++++++..oooo..OO..oo..++++++++++",
"++++++..OOOOOO..OO..OO..++++++++++",
"++++++..OOOOOO..OO..OO..++++++++++",
"++++++..oooooo......oo..++++++++++",
"++++++..oooooo......oo..++++++++++",
"++++++..OOOO..XXXX..OO..++++++++++",
"++++++..OOOO..XXXX..OO..++++++++++",
"++++++..OOOO..XXXX..OO..++++++++++",
"++++++..OOOO..XXXX..OO..++++++++++",
"++++++++..OOOO....OOOO..++++++++++",
"++++++++..OOOO....OOOO..++++++++++",
"++++++++++..OOOOOOOO..++++++++++++",
"++++++++++..OOOOOOOO..++++++++++++",
"++++++++++............++++++++++++",
"++++++++++............++++++++++++",
"++++++++++++........++++++++++++++",
"++++++++++++........++++++++++++++",
"++++++++++..........++++++++++++++",
"++++++++++..........++++++++++++++"
};
