/* XPM */
static char *_53d082933a641d7871626910cc211925jF33o8sE0bJVyNy[] = {
/* columns rows colors chars-per-pixel */
"17 29 6 1 ",
"  c black",
". c #3D120E",
"X c #FFC90E",
"o c #E607F8",
"O c #67A4E0",
"+ c #C386FF",
/* pixels */
"++++.........++++",
"++............+++",
"+..............++",
"................+",
"................+",
"...X.X...........",
"+..X.XX..........",
"+.XXXXX..........",
"+.XXXXX..XX......",
"+.X  XX.XXX......",
".XXXXXX.XX.......",
".XXXXXXXX........",
".  XXXXX........+",
"+.XXXXXX......+.+",
"++.....XX..+.++++",
"++++++.XX.+++++++",
"++++++....+++++++",
"+++++...O..++++++",
"++++.OOOO.O.+++++",
"++++.oo.O.o.+++++",
"+++.OOO.O.O.+++++",
"+++.ooo...o.+++++",
"+++.OO.XX.O.+++++",
"+++.OO.XX.O.+++++",
"++++.OO..OO.+++++",
"+++++.OOOO.++++++",
"+++++......++++++",
"++++++....+++++++",
"+++++.....+++++++"
};
