/* XPM */
static char *result[] = {
/* columns rows colors chars-per-pixel */
"60 60 9 1 ",
"  c black",
". c #170D2B",
"X c #1B1548",
"o c #04254E",
"O c #1B215A",
"+ c #0478AB",
"@ c #30BAF9",
"# c #7BFBFE",
"$ c white",
/* pixels */
"XXXXXXXXXXXXXXXXXXXXXXXXXXXXXXXXXXXXXXX            XXXXXXXXX",
"XXXXXXXXXXXXXXXXXXXXXXXXXXXXXXXXXXXXXXX            XXXXXXXXX",
"XXXXXXXXXXXXXXXXXXXXXXXXXXXXXXXXXXXXXXX            XXXXXXXXX",
"XXXXXXXXXXXXXXXXXXXXXXXXOOOXXXXXXXXX   ###@@@@@@@@@   XXXXXX",
"XXXXXXXXXXXXXXXXXXXXXXXXOOOXXXXXXXXX   ###@@@@@@@@@   XXXXXX",
"XXXXXXXXXXXXXXXXXXXXXXXXOOOXXXXXXXXX   ###@@@@@@@@@   XXXXXX",
"XXXXXXXXX...XXXXXXXXXOOOXXXXXXXXX...   $$$@@@@@@@@@@@@   XXX",
"XXXXXXXXX...XXXXXXXXXOOOXXXXXXXXX...   $$$@@@@@@@@@@@@   XXX",
"XXXXXXXXX...XXXXXXXXXOOOXXXXXXXXX...   $$$@@@@@@@@@@@@   XXX",
"XXXXXXXXXXXXXXXXXXXXXXXXXXXXXX...   $$$$$$###@@@@@@@@@   XXX",
"XXXXXXXXXXXXXXXXXXXXXXXXXXXXXX...   $$$$$$###@@@@@@@@@   XXX",
"XXXXXXXXXXXXXXXXXXXXXXXXXXXXXX...   $$$$$$###@@@@@@@@@   XXX",
"XXXXXXXXXXXXXXXXXXXXXXXXXXXXXXXXX   ###$$$$$$$$$$$$###   XXX",
"XXXXXXXXXXXXXXXXXXXXXXXXXXXXXXXXX   ###$$$$$$$$$$$$###   XXX",
"XXXXXXXXXXXXXXXXXXXXXXXXXXXXXXXXX   ###$$$$$$$$$$$$###   XXX",
"XXXXXXXXXXXX               ...XXXoooooo$$$$$$$$$$$$###   XXX",
"XXXXXXXXXXXX               ...XXXoooooo$$$$$$$$$$$$###   XXX",
"XXXXXXXXXXXX               ...XXXoooooo$$$$$$$$$$$$###   XXX",
"XXXXXXXXX   @@@@@@@@@@@@###   XXXXXXXXXooo@@@ooooooooo   XXX",
"XXXXXXXXX   @@@@@@@@@@@@###   XXXXXXXXXooo@@@ooooooooo   XXX",
"XXXXXXXXX   @@@@@@@@@@@@###   XXXXXXXXXooo@@@ooooooooo   XXX",
"XXXXXX   @@@@@@@@@@@@@@@$$$###      XXXooo###oooXXXXXXXXX...",
"XXXXXX   @@@@@@@@@@@@@@@$$$###      XXXooo###oooXXXXXXXXX...",
"XXXXXX   @@@@@@@@@@@@@@@$$$###      XXXooo###oooXXXXXXXXX...",
"XXX   $$$###@@@@@@@@@###$$$######oooooo         XXXXXXXXXXXX",
"XXX   $$$###@@@@@@@@@###$$$######oooooo         XXXXXXXXXXXX",
"XXX   $$$###@@@@@@@@@###$$$######oooooo         XXXXXXXXXXXX",
"XXX   $$$$$$$$$$$$$$$$$$$$$###@@@$$$$$$###@@@@@@      XXXXXX",
"XXX   $$$$$$$$$$$$$$$$$$$$$###@@@$$$$$$###@@@@@@      XXXXXX",
"XXX   $$$$$$$$$$$$$$$$$$$$$###@@@$$$$$$###@@@@@@      XXXXXX",
"XXX   $$$$$$$$$$$$$$$$$$$$$@@@$$$$$$$$$@@@@@@@@@@@@@@@   XXX",
"XXX   $$$$$$$$$$$$$$$$$$$$$@@@$$$$$$$$$@@@@@@@@@@@@@@@   XXX",
"XXX   $$$$$$$$$$$$$$$$$$$$$@@@$$$$$$$$$@@@@@@@@@@@@@@@   XXX",
"XXXooo$$$$$$$$$###$$$$$$$$$@@@$$$$$$$$$@@@@@@@@@@@@###   XXX",
"XXXooo$$$$$$$$$###$$$$$$$$$@@@$$$$$$$$$@@@@@@@@@@@@###   XXX",
"XXXooo$$$$$$$$$###$$$$$$$$$@@@$$$$$$$$$@@@@@@@@@@@@###   XXX",
"XXXooo###$$$$$$@@@$$$$$$$$$ooo$$$$$$$$$###@@@@@@###$$$   XXX",
"XXXooo###$$$$$$@@@$$$$$$$$$ooo$$$$$$$$$###@@@@@@###$$$   XXX",
"XXXooo###$$$$$$@@@$$$$$$$$$ooo$$$$$$$$$###@@@@@@###$$$   XXX",
"...XXXoooooooooooooooooooooooo$$$$$$$$$$$$$$$$$$$$$$$$   ...",
"...XXXoooooooooooooooooooooooo$$$$$$$$$$$$$$$$$$$$$$$$   ...",
"...XXXoooooooooooooooooooooooo$$$$$$$$$$$$$$$$$$$$$$$$   ...",
"XXXXXXXXXXXXXXXooo@@@ooooooooo###$$$$$$$$$$$$$$$$$$###oooXXX",
"XXXXXXXXXXXXXXXooo@@@ooooooooo###$$$$$$$$$$$$$$$$$$###oooXXX",
"XXXXXXXXXXXXXXXooo@@@ooooooooo###$$$$$$$$$$$$$$$$$$###oooXXX",
"XXXXXXXXX...XXXXXXooo@@@ooo@@@ooo###$$$$$$$$$######oooXXXXXX",
"XXXXXXXXX...XXXXXXooo@@@ooo@@@ooo###$$$$$$$$$######oooXXXXXX",
"XXXXXXXXX...XXXXXXooo@@@ooo@@@ooo###$$$$$$$$$######oooXXXXXX",
"XXXXXXXXX+++++++++ooo###@@@###ooooooooooooooooooooo.........",
"XXXXXXXXX+++++++++ooo###@@@###ooooooooooooooooooooo.........",
"XXXXXXXXX+++++++++ooo###@@@###ooooooooooooooooooooo.........",
"XXXXXX+++++++++++++++$$$@@@$$$ooo@@@###ooo+++++++++XXXXXXXXX",
"XXXXXX+++++++++++++++$$$@@@$$$ooo@@@###ooo+++++++++XXXXXXXXX",
"XXXXXX+++++++++++++++$$$@@@$$$ooo@@@###ooo+++++++++XXXXXXXXX",
"XXXXXX+++++++++++++++++++++++++++++++++++++++++++++XXXXXXXXX",
"XXXXXX+++++++++++++++++++++++++++++++++++++++++++++XXXXXXXXX",
"XXXXXX+++++++++++++++++++++++++++++++++++++++++++++XXXXXXXXX",
"XXXXXXXXXXXX++++++++++++++++++++++++++++++++++++XXXXXXXXXXXX",
"XXXXXXXXXXXX++++++++++++++++++++++++++++++++++++XXXXXXXXXXXX",
"XXXXXXXXXXXX++++++++++++++++++++++++++++++++++++XXXXXXXXXXXX"
};
