/* XPM */
static char *result[] = {
/* columns rows colors chars-per-pixel */
"40 40 8 1 ",
"  c black",
". c #1B1548",
"X c #362F79",
"o c #4E0857",
"O c #FF2BE9",
"+ c #F38BFF",
"@ c white",
"# c None",
/* pixels */
"############oo##########################",
"############oo##########################",
"##########ooOOoo########################",
"##########ooOOoo########################",
"########oo++@@OOoo##############oo######",
"########oo++@@OOoo##############oo######",
"######oo++@@@@++OO  ##########  OOoo####",
"######oo++@@@@++OO  ##########  OOoo####",
"####oo++@@@@@@++++  ########  ++@@OOoo##",
"####oo++@@@@@@++++  ########  ++@@OOoo##",
"####ooOO@@@@@@++++oo  ####  oo@@@@++OOoo",
"####ooOO@@@@@@++++oo  ####  oo@@@@++OOoo",
"####ooOOOOOO@@++++OO  ####  OO@@@@++++oo",
"####ooOOOOOO@@++++OO  ####  OO@@@@++++oo",
"####ooOOOOOO++OOOOOO  ####  OOOO@@++oo##",
"####ooOOOOOO++OOOOOO  ####  OOOO@@++oo##",
"####ooOOOOOO++OOOOOO  ####  OOOO++OOoo##",
"####ooOOOOOO++OOOOOO  ####  OOOO++OOoo##",
"####  ooOOOOOO++OOOO  ##  ooOOOO++OOoo##",
"####  ooOOOOOO++OOOO  ##  ooOOOO++OOoo##",
"####  ooOOOOOO++OOOOoo    ooOO++OOoo####",
"####  ooOOOOOO++OOOOoo    ooOO++OOoo####",
"######  OOOOOO++OOOOOO        ++OOoo####",
"######  OOOOOO++OOOOOO        ++OOoo####",
"######  OOOOOO++OOOOOO    XXXX  oo  ####",
"######  OOOOOO++OOOOOO    XXXX  oo  ####",
"######    ooOOOO++OOoo  XXXXXX..    ####",
"######    ooOOOO++OOoo  XXXXXX..    ####",
"######  XX      ++oo  XXXXXX....    ####",
"######  XX      ++oo  XXXXXX....    ####",
"####  ..XXXXXXXX    XXXXXXXX......  ####",
"####  ..XXXXXXXX    XXXXXXXX......  ####",
"####  ......XXXXXX..XXXXXX....XXXXXX  ##",
"####  ......XXXXXX..XXXXXX....XXXXXX  ##",
"####  ........XXXX..XXXX....XXXXXXXX  ##",
"####  ........XXXX..XXXX....XXXXXXXX  ##",
"####    ........XXXX....XXXXXXXX    ####",
"####    ........XXXX....XXXXXXXX    ####",
"########                        ########",
"########                        ########"
};
