/* XPM */
static char *result[] = {
/* columns rows colors chars-per-pixel */
"60 60 9 1 ",
"  c black",
". c #170D2B",
"X c #1B1548",
"o c #1B215A",
"O c #362F79",
"+ c #4E0857",
"@ c #FF2BE9",
"# c #F38BFF",
"$ c white",
/* pixels */
"XXXXXXXXXXXXXXX+++XXXXXXXXXXXXXXXXXXXXXXXXXXXXXX...XXXXXXXXX",
"XXXXXXXXXXXXXXX+++XXXXXXXXXXXXXXXXXXXXXXXXXXXXXX...XXXXXXXXX",
"XXXXXXXXXXXXXXX+++XXXXXXXXXXXXXXXXXXXXXXXXXXXXXX...XXXXXXXXX",
"XXXXXXXXXXXX+++@@@+++XXXoooXXXXXXXXXXXXXXXXXXXXXXXXXXXXXXXXX",
"XXXXXXXXXXXX+++@@@+++XXXoooXXXXXXXXXXXXXXXXXXXXXXXXXXXXXXXXX",
"XXXXXXXXXXXX+++@@@+++XXXoooXXXXXXXXXXXXXXXXXXXXXXXXXXXXXXXXX",
"XXXXXXXXX+++###$$$@@@+++XXXXXXXXX...XXX...XXX+++...XXXXXXXXX",
"XXXXXXXXX+++###$$$@@@+++XXXXXXXXX...XXX...XXX+++...XXXXXXXXX",
"XXXXXXXXX+++###$$$@@@+++XXXXXXXXX...XXX...XXX+++...XXXXXXXXX",
"XXXXXX+++###$$$$$$###@@@   XXX...XXX...XXX   @@@+++XXXXXXXXX",
"XXXXXX+++###$$$$$$###@@@   XXX...XXX...XXX   @@@+++XXXXXXXXX",
"XXXXXX+++###$$$$$$###@@@   XXX...XXX...XXX   @@@+++XXXXXXXXX",
"XXX+++###$$$$$$$$$######   XXXXXX...XXX   ###$$$@@@+++XXXXXX",
"XXX+++###$$$$$$$$$######   XXXXXX...XXX   ###$$$@@@+++XXXXXX",
"XXX+++###$$$$$$$$$######   XXXXXX...XXX   ###$$$@@@+++XXXXXX",
"XXX+++@@@$$$$$$$$$######+++   XXXXXX   +++$$$$$$###@@@+++XXX",
"XXX+++@@@$$$$$$$$$######+++   XXXXXX   +++$$$$$$###@@@+++XXX",
"XXX+++@@@$$$$$$$$$######+++   XXXXXX   +++$$$$$$###@@@+++XXX",
"XXX+++@@@@@@@@@$$$######@@@   XXXXXX   @@@$$$$$$######+++XXX",
"XXX+++@@@@@@@@@$$$######@@@   XXXXXX   @@@$$$$$$######+++XXX",
"XXX+++@@@@@@@@@$$$######@@@   XXXXXX   @@@$$$$$$######+++XXX",
"XXX+++@@@@@@@@@###@@@@@@@@@   XXXXXX   @@@@@@$$$###+++XXX...",
"XXX+++@@@@@@@@@###@@@@@@@@@   XXXXXX   @@@@@@$$$###+++XXX...",
"XXX+++@@@@@@@@@###@@@@@@@@@   XXXXXX   @@@@@@$$$###+++XXX...",
"XXX+++@@@@@@@@@###@@@@@@@@@   XXXXXX   @@@@@@###@@@+++XXXXXX",
"XXX+++@@@@@@@@@###@@@@@@@@@   XXXXXX   @@@@@@###@@@+++XXXXXX",
"XXX+++@@@@@@@@@###@@@@@@@@@   XXXXXX   @@@@@@###@@@+++XXXXXX",
"XXX   +++@@@@@@@@@###@@@@@@   XXX   +++@@@@@@###@@@+++XXXXXX",
"XXX   +++@@@@@@@@@###@@@@@@   XXX   +++@@@@@@###@@@+++XXXXXX",
"XXX   +++@@@@@@@@@###@@@@@@   XXX   +++@@@@@@###@@@+++XXXXXX",
"XXX   +++@@@@@@@@@###@@@@@@+++      +++@@@###@@@+++XXXXXXXXX",
"XXX   +++@@@@@@@@@###@@@@@@+++      +++@@@###@@@+++XXXXXXXXX",
"XXX   +++@@@@@@@@@###@@@@@@+++      +++@@@###@@@+++XXXXXXXXX",
"XXXXXX   @@@@@@@@@###@@@@@@@@@            ###@@@+++XXXXXXXXX",
"XXXXXX   @@@@@@@@@###@@@@@@@@@            ###@@@+++XXXXXXXXX",
"XXXXXX   @@@@@@@@@###@@@@@@@@@            ###@@@+++XXXXXXXXX",
"XXXXXX   @@@@@@@@@###@@@@@@@@@      OOOOOO   +++   XXXoooXXX",
"XXXXXX   @@@@@@@@@###@@@@@@@@@      OOOOOO   +++   XXXoooXXX",
"XXXXXX   @@@@@@@@@###@@@@@@@@@      OOOOOO   +++   XXXoooXXX",
"...XXX      +++@@@@@@###@@@+++   OOOOOOOOOXXX      XXXXXX...",
"...XXX      +++@@@@@@###@@@+++   OOOOOOOOOXXX      XXXXXX...",
"...XXX      +++@@@@@@###@@@+++   OOOOOOOOOXXX      XXXXXX...",
"XXXXXX   OOO         ###+++   OOOOOOOOOXXXXXX      XXXXXXXXX",
"XXXXXX   OOO         ###+++   OOOOOOOOOXXXXXX      XXXXXXXXX",
"XXXXXX   OOO         ###+++   OOOOOOOOOXXXXXX      XXXXXXXXX",
"XXX   XXXOOOOOOOOOOOO      OOOOOOOOOOOOXXXXXXXXX   XXXXXXXXX",
"XXX   XXXOOOOOOOOOOOO      OOOOOOOOOOOOXXXXXXXXX   XXXXXXXXX",
"XXX   XXXOOOOOOOOOOOO      OOOOOOOOOOOOXXXXXXXXX   XXXXXXXXX",
"XXX   XXXXXXXXXOOOOOOOOOXXXOOOOOOOOOXXXXXXOOOOOOOOO   ......",
"XXX   XXXXXXXXXOOOOOOOOOXXXOOOOOOOOOXXXXXXOOOOOOOOO   ......",
"XXX   XXXXXXXXXOOOOOOOOOXXXOOOOOOOOOXXXXXXOOOOOOOOO   ......",
"XXX   XXXXXXXXXXXXOOOOOOXXXOOOOOOXXXXXXOOOOOOOOOOOO   XXXXXX",
"XXX   XXXXXXXXXXXXOOOOOOXXXOOOOOOXXXXXXOOOOOOOOOOOO   XXXXXX",
"XXX   XXXXXXXXXXXXOOOOOOXXXOOOOOOXXXXXXOOOOOOOOOOOO   XXXXXX",
"XXX      XXXXXXXXXXXXOOOOOOXXXXXXOOOOOOOOOOOO      XXXXXXXXX",
"XXX      XXXXXXXXXXXXOOOOOOXXXXXXOOOOOOOOOOOO      XXXXXXXXX",
"XXX      XXXXXXXXXXXXOOOOOOXXXXXXOOOOOOOOOOOO      XXXXXXXXX",
"XXXXXXXXX                                    XXXXXXXXXXXXXXX",
"XXXXXXXXX                                    XXXXXXXXXXXXXXX",
"XXXXXXXXX                                    XXXXXXXXXXXXXXX"
};
