/* XPM */
static char *result[] = {
/* columns rows colors chars-per-pixel */
"60 60 8 1 ",
"  c black",
". c #170D2B",
"X c #400000",
"o c #1B1548",
"O c #1B215A",
"+ c #808080",
"@ c #C0C0C0",
"# c white",
/* pixels */
"oooooooooooooooooooooooooooooooooooooooooooooooo...ooooooooo",
"oooooooooooooooooooooooooooooooooooooooooooooooo...ooooooooo",
"oooooooooooooooooooooooooooooooooooooooooooooooo...ooooooooo",
"ooooooooooooooooooooooooOOOooooooooooooooooooooooooooooooooo",
"ooooooooooooooooooooooooOOOooooooooooooooooooooooooooooooooo",
"ooooooooooooooooooooooooOOOooooooooooooooooooooooooooooooooo",
"ooooooooo...oooooooooOOOooooooooo...ooo...ooo......ooooooooo",
"ooooooooo...oooooooooOOOooooooooo...ooo...ooo......ooooooooo",
"ooooooooo...oooooooooOOOooooooooo...ooo...ooo......ooooooooo",
"oooooooooooooooooooooooooooooo...ooo...ooooooooooooooooooooo",
"oooooooooooooooooooooooooooooo...ooo...ooooooooooooooooooooo",
"oooooooooooooooooooooooooooooo...ooo...ooooooooooooooooooooo",
"oooooooooooooooXXXXXXXXXXXXXXXXXXXXXXXXXXXXXXoooooo...oooooo",
"oooooooooooooooXXXXXXXXXXXXXXXXXXXXXXXXXXXXXXoooooo...oooooo",
"oooooooooooooooXXXXXXXXXXXXXXXXXXXXXXXXXXXXXXoooooo...oooooo",
"ooooooooooooXXX##############################XXXoooooooooooo",
"ooooooooooooXXX##############################XXXoooooooooooo",
"ooooooooooooXXX##############################XXXoooooooooooo",
"oooooooooXXX###@@@@@@@@@@@@@@@@@@@@@@@@@@@@@@###XXXooooooooo",
"oooooooooXXX###@@@@@@@@@@@@@@@@@@@@@@@@@@@@@@###XXXooooooooo",
"oooooooooXXX###@@@@@@@@@@@@@@@@@@@@@@@@@@@@@@###XXXooooooooo",
"oooooo   ###@@@@@@@@@@@@@@@@@@@@@@@@@@@@@@@@@@@@###   ooo...",
"oooooo   ###@@@@@@@@@@@@@@@@@@@@@@@@@@@@@@@@@@@@###   ooo...",
"oooooo   ###@@@@@@@@@@@@@@@@@@@@@@@@@@@@@@@@@@@@###   ooo...",
"oooooo   @@@@@@@@@@@@@@@@@@@@@@@@@@@@@@@@@@@@@@@@@@   oooooo",
"oooooo   @@@@@@@@@@@@@@@@@@@@@@@@@@@@@@@@@@@@@@@@@@   oooooo",
"oooooo   @@@@@@@@@@@@@@@@@@@@@@@@@@@@@@@@@@@@@@@@@@   oooooo",
"oooooo   @@@@@@@@@@@@@@@@@@@@@@@@@@@@@@@@@@@@@@@@@@   oooooo",
"oooooo   @@@@@@@@@@@@@@@@@@@@@@@@@@@@@@@@@@@@@@@@@@   oooooo",
"oooooo   @@@@@@@@@@@@@@@@@@@@@@@@@@@@@@@@@@@@@@@@@@   oooooo",
"oooooo   @@@@@@@@@@@@@@@@@@@@@@@@@@@@@@@@@@@@@@@@@@   oooooo",
"oooooo   @@@@@@@@@@@@@@@@@@@@@@@@@@@@@@@@@@@@@@@@@@   oooooo",
"oooooo   @@@@@@@@@@@@@@@@@@@@@@@@@@@@@@@@@@@@@@@@@@   oooooo",
"oooooo   @@@@@@@@@@@@@@@@@@@@@@@@@@@@@@@@@@@@@@@@@@   oooooo",
"oooooo   @@@@@@@@@@@@@@@@@@@@@@@@@@@@@@@@@@@@@@@@@@   oooooo",
"oooooo   @@@@@@@@@@@@@@@@@@@@@@@@@@@@@@@@@@@@@@@@@@   oooooo",
"oooooo   +++@@@@@@@@@@@@@@@@@@@@@@@@@@@@@@@@@@@@+++   OOOooo",
"oooooo   +++@@@@@@@@@@@@@@@@@@@@@@@@@@@@@@@@@@@@+++   OOOooo",
"oooooo   +++@@@@@@@@@@@@@@@@@@@@@@@@@@@@@@@@@@@@+++   OOOooo",
"...oooooo   +++@@@@@@@@@@@@@@@@@@@@@@@@@@@@@@+++   oooooo...",
"...oooooo   +++@@@@@@@@@@@@@@@@@@@@@@@@@@@@@@+++   oooooo...",
"...oooooo   +++@@@@@@@@@@@@@@@@@@@@@@@@@@@@@@+++   oooooo...",
"oooooooooooo   ++++++++++++++++++++++++++++++   oooooooooooo",
"oooooooooooo   ++++++++++++++++++++++++++++++   oooooooooooo",
"oooooooooooo   ++++++++++++++++++++++++++++++   oooooooooooo",
"ooooooooo...ooo                              ooooooooooooooo",
"ooooooooo...ooo                              ooooooooooooooo",
"ooooooooo...ooo                              ooooooooooooooo",
"oooooooooooooooooo......ooo......ooo...oooooooooooo.........",
"oooooooooooooooooo......ooo......ooo...oooooooooooo.........",
"oooooooooooooooooo......ooo......ooo...oooooooooooo.........",
"ooooooOOOooooooooooooooooooooooooooooooooooooooooooooooooooo",
"ooooooOOOooooooooooooooooooooooooooooooooooooooooooooooooooo",
"ooooooOOOooooooooooooooooooooooooooooooooooooooooooooooooooo",
"ooooooooooooooo...oooooooooooooooooooooOOOoooooooooooooooooo",
"ooooooooooooooo...oooooooooooooooooooooOOOoooooooooooooooooo",
"ooooooooooooooo...oooooooooooooooooooooOOOoooooooooooooooooo",
"ooooooooooooOOOooooooooooooooooooooooooooooooooooooooooooooo",
"ooooooooooooOOOooooooooooooooooooooooooooooooooooooooooooooo",
"ooooooooooooOOOooooooooooooooooooooooooooooooooooooooooooooo"
};
