/* XPM */
static char *result[] = {
/* columns rows colors chars-per-pixel */
"60 60 8 1 ",
"  c black",
". c #3D120E",
"X c #170D2B",
"o c #1B1548",
"O c #1B215A",
"+ c #FFC90E",
"@ c #E607F8",
"# c #67A4E0",
/* pixels */
"ooooooooooooooooooooooooooooooooooooooooooooooooXXXooooooooo",
"ooooooooooooooooooooo..................oooooooooXXXooooooooo",
"ooooooooooooooooooooo..................oooooooooXXXooooooooo",
"ooooooooooooooooooo........................ooooooooooooooooo",
"ooooooooooooooooooo........................ooooooooooooooooo",
"ooooooooooooooooo............................ooooooooooooooo",
"oooooooooXXXooooo............................XXXXXXooooooooo",
"oooooooooXXXooo................................XXXXooooooooo",
"oooooooooXXXooo................................XXXXooooooooo",
"ooooooooooooooo................................ooooooooooooo",
"ooooooooooooooo................................ooooooooooooo",
"ooooooooooooo......................++..++......ooooooooooooo",
"ooooooooooooo......................++..++......ooooXXXoooooo",
"ooooooooooooo....................++++..++....ooooooXXXoooooo",
"ooooooooooooo....................++++..++....ooooooXXXoooooo",
"ooooooooooooo....................++++++++++..ooooooooooooooo",
"ooooooooooooo....................++++++++++..ooooooooooooooo",
"ooooooooooooo............++++....++++++++++..ooooooooooooooo",
"ooooooooooooo............++++....++++++++++..ooooooooooooooo",
"ooooooooooooo............++++++..++++    ++..ooooooooooooooo",
"ooooooooooooo............++++++..++++    ++..ooooooooooooooo",
"ooooooooooooo..............++++..++++++++++++..XoooooooooXXX",
"ooooooooooooo..............++++..++++++++++++..XoooooooooXXX",
"ooooooooooooo................++++++++++++++++..XoooooooooXXX",
"ooooooooooooO................++++++++++++++++..ooooooooooooo",
"ooooooooooooOOO................++++++++++    ..ooooooooooooo",
"ooooooooooooOOO................++++++++++    ..ooooooooooooo",
"ooooooooooooooo..oo............++++++++++++..ooooooooooooooo",
"ooooooooooooooo..oo............++++++++++++..ooooooooooooooo",
"ooooooooooooooooooooo..oo....++++..........ooooooooooooooooo",
"ooooooXXXXXXooooooooo..Xo....++++..........ooooooooooooooooo",
"ooooooXXXXXXoooooooooXXXooo..++++..ooooooooooooooooooooooooo",
"ooooooXXXXXXoooooooooXXXooo..++++..ooooooooooooooooooooooooo",
"ooooooooooooooooooooooooooo........oXXXoooooooooXXXooooooooo",
"ooooooooooooooooooooooooooo........oXXXoooooooooXXXooooooooo",
"ooooooooooooooooooooooooo....##......XXoooooooooXXXooooooooo",
"ooooooooooooooooooXXXoooo....##......oooooooooooooooooOOOooo",
"ooooooooooooooooooXXXoo..##..########..oooooooooooooooOOOooo",
"ooooooooooooooooooXXXoo..##..########..oooooooooooooooOOOooo",
"XXXoooooooooooooooooooo..@@..##..@@@@..ooooooooooooooooooXXX",
"XXXoooooooooooooooooooo..@@..##..@@@@..ooooooooooooooooooXXX",
"XXXoooooooooooooooooooo..##..##..######..ooooooooooooooooXXX",
"ooooooooooooooooooooooo..##..##..######..ooooooooooooooooooo",
"ooooooooooooooooooooooo..@@......@@@@@@..ooooooooooooooooooo",
"ooooooooooooooooooooooo..@@......@@@@@@..ooooooooooooooooooo",
"oooooooooXXXooooooooooo..##..++++..####..oXXXooooooooooooooo",
"oooooooooXXXooooooooooo..##..++++..####..oXXXooooooooooooooo",
"oooooooooXXXooooooooooo..##..++++..####..oXXXooooooooooooooo",
"ooooooooooooooooooXXXXX..##..++++..####..ooooooooooXXXXXXXXX",
"ooooooooooooooooooXXXXX..####....####..ooooooooooooXXXXXXXXX",
"ooooooooooooooooooXXXXX..####....####..ooooooooooooXXXXXXXXX",
"ooooooOOOoooooooooooooooo..########..ooooooooooooooooooooooo",
"ooooooOOOoooooooooooooooo..########..ooooooooooooooooooooooo",
"ooooooOOOoooooooooooooooo............ooooooooooooooooooooooo",
"oooooooooooooooXXXooooooo............ooOOOoooooooooooooooooo",
"oooooooooooooooXXXooooooooo........ooooOOOoooooooooooooooooo",
"oooooooooooooooXXXooooooooo........ooooOOOoooooooooooooooooo",
"ooooooooooooOOOoooooooooooo..........ooooooooooooooooooooooo",
"ooooooooooooOOOoooooooooooo..........ooooooooooooooooooooooo",
"ooooooooooooOOOooooooooooooooooooooooooooooooooooooooooooooo"
};
