/* XPM */
static char *result[] = {
/* columns rows colors chars-per-pixel */
"60 60 8 1 ",
"  c black",
". c #3D120E",
"X c #170D2B",
"o c #1B1548",
"O c #1B215A",
"+ c #FFC90E",
"@ c #E607F8",
"# c #67A4E0",
/* pixels */
"ooooooooooooooooooooooooooooooooooooooooooooooooXXXooooooooo",
"ooooooooooooooooooooo..................oooooooooXXXooooooooo",
"ooooooooooooooooooooo..................oooooooooXXXooooooooo",
"ooooooooooooooooo........................ooooooooooooooooooo",
"ooooooooooooooooo........................ooooooooooooooooooo",
"ooooooooooooooo............................ooooooooooooooooo",
"oooooooooXXXooo............................ooXXXXXXooooooooo",
"oooooooooXXXo................................XXXXXXooooooooo",
"oooooooooXXXo................................XXXXXXooooooooo",
"ooooooooooooo................................ooooooooooooooo",
"ooooooooooooo................................ooooooooooooooo",
"ooooooooooooo......++..++......................ooooooooooooo",
"ooooooooooooo......++..++......................ooooXXXoooooo",
"ooooooooooooooo....++..++++....................ooooXXXoooooo",
"ooooooooooooooo....++..++++....................ooooXXXoooooo",
"ooooooooooooooo..++++++++++....................ooooooooooooo",
"ooooooooooooooo..++++++++++....................ooooooooooooo",
"ooooooooooooooo..++++++++++....++++............ooooooooooooo",
"ooooooooooooooo..++++++++++....++++............ooooooooooooo",
"ooooooooooooooo..++    ++++..++++++............ooooooooooooo",
"ooooooooooooooo..++    ++++..++++++............ooooooooooooo",
"ooooooooooooo..++++++++++++..++++..............XoooooooooXXX",
"ooooooooooooo..++++++++++++..++++..............XoooooooooXXX",
"ooooooooooooo..++++++++++++++++................XoooooooooXXX",
"ooooooooooooO..++++++++++++++++................ooooooooooooo",
"ooooooooooooO..    ++++++++++................ooooooooooooooo",
"ooooooooooooO..    ++++++++++................ooooooooooooooo",
"ooooooooooooooo..++++++++++++............oo..ooooooooooooooo",
"ooooooooooooooo..++++++++++++............oo..ooooooooooooooo",
"ooooooooooooooooo..........++++....oO..ooooooooooooooooooooo",
"ooooooXXXXXXooooo..........++++....oo..ooooooooooooooooooooo",
"ooooooXXXXXXoooooooooXXXo..++++..ooooooooooooooooooooooooooo",
"ooooooXXXXXXoooooooooXXXo..++++..ooooooooooooooooooooooooooo",
"ooooooooooooooooooooooooo........oooXXXoooooooooXXXooooooooo",
"ooooooooooooooooooooooooo........oooXXXoooooooooXXXooooooooo",
"ooooooooooooooooooooooo......##....oXXXoooooooooXXXooooooooo",
"ooooooooooooooooooXXXoo......##....oooooooooooooooooooOOOooo",
"ooooooooooooooooooXXX..########..##..oooooooooooooooooOOOooo",
"ooooooooooooooooooXXX..########..##..oooooooooooooooooOOOooo",
"XXXoooooooooooooooooo..@@@@..##..@@..ooooooooooooooooooooXXX",
"XXXoooooooooooooooooo..@@@@..##..@@..ooooooooooooooooooooXXX",
"XXXoooooooooooooooo..######..##..##..ooooooooooooooooooooXXX",
"ooooooooooooooooooo..######..##..##..ooooooooooooooooooooooo",
"ooooooooooooooooooo..@@@@@@......@@..ooooooooooooooooooooooo",
"ooooooooooooooooooo..@@@@@@......@@..ooooooooooooooooooooooo",
"oooooooooXXXooooooo..####..++++..##..oooooXXXooooooooooooooo",
"oooooooooXXXooooooo..####..++++..##..oooooXXXooooooooooooooo",
"oooooooooXXXooooooo..####..++++..##..oooooXXXooooooooooooooo",
"ooooooooooooooooooX..####..++++..##..XXooooooooooooXXXXXXXXX",
"ooooooooooooooooooXXX..####....####..XXooooooooooooXXXXXXXXX",
"ooooooooooooooooooXXX..####....####..XXooooooooooooXXXXXXXXX",
"ooooooOOOoooooooooooooo..########..ooooooooooooooooooooooooo",
"ooooooOOOoooooooooooooo..########..ooooooooooooooooooooooooo",
"ooooooOOOoooooooooooooo............ooooooooooooooooooooooooo",
"oooooooooooooooXXXooooo............ooooOOOoooooooooooooooooo",
"oooooooooooooooXXXooooooo........ooooooOOOoooooooooooooooooo",
"oooooooooooooooXXXooooooo........ooooooOOOoooooooooooooooooo",
"ooooooooooooOOOoooooooo..........ooooooooooooooooooooooooooo",
"ooooooooooooOOOoooooooo..........ooooooooooooooooooooooooooo",
"ooooooooooooOOOooooooooooooooooooooooooooooooooooooooooooooo"
};
