/* XPM */
static char *result[] = {
/* columns rows colors chars-per-pixel */
"60 60 7 1 ",
"  c #3D120E",
". c #170D2B",
"X c #1B1548",
"o c #1B215A",
"O c #FFC90E",
"+ c #E607F8",
"@ c #67A4E0",
/* pixels */
"XXXXXXXXXXXXXXXXXXXXXXXXXXXXXXXXXXXXXXXXXXXXXXXX...XXXXXXXXX",
"XXXXXXXXXXXXXXXXXXXXX                  XXXXXXXXX...XXXXXXXXX",
"XXXXXXXXXXXXXXXXXXXXX                  XXXXXXXXX...XXXXXXXXX",
"XXXXXXXXXXXXXXXXXXX                      XXXXXXXXXXXXXXXXXXX",
"XXXXXXXXXXXXXXXXXXX                      XXXXXXXXXXXXXXXXXXX",
"XXXXXXXXXXXXXXXXX                          XXXXXXXXXXXXXXXXX",
"XXXXXXXXX...XXXXX                          XX......XXXXXXXXX",
"XXXXXXXXX...XXX                              ......XXXXXXXXX",
"XXXXXXXXX...XXX                              ......XXXXXXXXX",
"XXXXXXXXXXXXX                                XXXXXXXXXXXXXXX",
"XXXXXXXXXXXXX                                XXXXXXXXXXXXXXX",
"XXXXXXXXXXXXX                                  XXXXXXXXXXXXX",
"XXXXXXXXXXXXX                                  XXXX...XXXXXX",
"XXXXXXXXXXXXX                                  XXXX...XXXXXX",
"XXXXXXXXXXXXX                                  XXXX...XXXXXX",
"XXXXXXXXXXX                                    XXXXXXXXXXXXX",
"XXXXXXXXXXX                                    XXXXXXXXXXXXX",
"XXXXXXXXXXX                                      XXXXXXXXXXX",
"XXXXXXXXXXX                                      XXXXXXXXXXX",
"XXXXXXXXXXX                                      XXXXXXXXXXX",
"XXXXXXXXXXX                                      XXXXXXXXXXX",
"XXXXXXXXXXX                                      XXXXXXXX...",
"XXXXXXXXXXX                                      XXXXXXXX...",
"XXXXXXXXXXX                                      XXXXXXXX...",
"XXXXXXXXXXX                                      XXXXXXXXXXX",
"XXXXXXXXXXX                                      XXXXXXXXXXX",
"XXXXXXXXXXX                                      XXXXXXXXXXX",
"XXXXXXXXXXX                                      XXXXXXXXXXX",
"XXXXXXXXXXX                                      XXXXXXXXXXX",
"XXXXXXXXXXXXX  XX                          XX  XXXXXXXXXXXXX",
"XXXXXX......X  XX                          XX  XXXXXXXXXXXXX",
"XXXXXX......XXXXX  XX...X  OOOO  XXXXXXXXXXXXXXXXXXXXXXXXXXX",
"XXXXXX......XXXXX  XX...X  OOOO  XXXXXXXXXXXXXXXXXXXXXXXXXXX",
"XXXXXXXXXXXXXXXXXXXXX              X...XXXXXXXXX...XXXXXXXXX",
"XXXXXXXXXXXXXXXXXXXXX              X...XXXXXXXXX...XXXXXXXXX",
"XXXXXXXXXXXXXXXXX      @@@@@@@@@@@@      XXXXXXX...XXXXXXXXX",
"XXXXXXXXXXXXXXXXX      @@@@@@@@@@@@      XXXXXXXXXXXXXoooXXX",
"XXXXXXXXXXXXXXX  @@  @@@@@@@@@@@@@@@@  @@  XXXXXXXXXXXoooXXX",
"XXXXXXXXXXXXXXX  @@  @@@@@@@@@@@@@@@@  @@  XXXXXXXXXXXoooXXX",
"...XXXXXXXXXX  @@    ++++++++++++++++++  @@  XXXXXXXXXXXX...",
"...XXXXXXXXXX  @@    ++++++++++++++++++  @@  XXXXXXXXXXXX...",
"...XXXXXXXXXX  @@  @@@@@@@@@@@@@@@@@@@@  @@  XXXXXXXXXXXX...",
"XXXXXXXXXXXXX  @@  @@@@@@@@@@@@@@@@@@@@  @@  XXXXXXXXXXXXXXX",
"XXXXXXXXXXXXX      ++++++++++++++++++++      XXXXXXXXXXXXXXX",
"XXXXXXXXXXXXX      ++++++++++++++++++++      XXXXXXXXXXXXXXX",
"XXXXXXXXX...X  OO  @@@@@@@@@@@@@@@@@@@@  OO  XXXXXXXXXXXXXXX",
"XXXXXXXXX...X  OO  @@@@@@@@@@@@@@@@@@@@  OO  XXXXXXXXXXXXXXX",
"XXXXXXXXX...X      @@@@@@@@@@@@@@@@@@@@      XXXXXXXXXXXXXXX",
"XXXXXXXXXXXXX      @@@@@@@@@@@@@@@@@@@@      XXXXXX.........",
"XXXXXXXXXXXXXXXXX  @@@@@@@@      @@@@@@  XXXXXXXXXX.........",
"XXXXXXXXXXXXXXXXX  @@@@@@@@      @@@@@@  XXXXXXXXXX.........",
"XXXXXXoooXXXXXXXX  @@@@@@@@  XX  @@@@@@  XXXXXXXXXXXXXXXXXXX",
"XXXXXXoooXXXXXXXX  @@@@@@@@  XX  @@@@@@  XXXXXXXXXXXXXXXXXXX",
"XXXXXXoooXXXXXXXX            XX          XXXXXXXXXXXXXXXXXXX",
"XXXXXXXXXXXXXXX..            XX          oXXXXXXXXXXXXXXXXXX",
"XXXXXXXXXXXXXXX...XXX        XX      XXoooXXXXXXXXXXXXXXXXXX",
"XXXXXXXXXXXXXXX...XXX        XX      XXoooXXXXXXXXXXXXXXXXXX",
"XXXXXXXXXXXXoooXXXX          XX          XXXXXXXXXXXXXXXXXXX",
"XXXXXXXXXXXXoooXXXX          XX          XXXXXXXXXXXXXXXXXXX",
"XXXXXXXXXXXXoooXXXXXXXXXXXXXXXXXXXXXXXXXXXXXXXXXXXXXXXXXXXXX"
};
