/* XPM */
static char *result[] = {
/* columns rows colors chars-per-pixel */
"60 60 8 1 ",
"  c black",
". c #3D120E",
"X c #170D2B",
"o c #1B1548",
"O c #1B215A",
"+ c #FFC90E",
"@ c #E607F8",
"# c #67A4E0",
/* pixels */
"ooooooooooooooooooooooooooooooooooooooooooooooooXXXooooooooo",
"ooooooooooooooooooooo..................oooooooooXXXooooooooo",
"ooooooooooooooooooooo..................oooooooooXXXooooooooo",
"ooooooooooooooooooo......................ooooooooooooooooooo",
"ooooooooooooooooooo......................ooooooooooooooooooo",
"ooooooooooooooooo..........................ooooooooooooooooo",
"oooooooooXXXooooo..........................ooXXXXXXooooooooo",
"oooooooooXXXooo..............................XXXXXXooooooooo",
"oooooooooXXXooo..............................XXXXXXooooooooo",
"ooooooooooooooo................................ooooooooooooo",
"ooooooooooooooo................................ooooooooooooo",
"ooooooooooooo........++........++..............ooooooooooooo",
"ooooooooooooo........++........++..............ooooXXXoooooo",
"ooooooooooooo......++++++....++++....++........ooooXXXoooooo",
"ooooooooooooo......++++++....++++....++........ooooXXXoooooo",
"ooooooooooooo......++++++++++++++++++++++........ooooooooooo",
"ooooooooooooo......++++++++++++++++++++++........ooooooooooo",
"ooooooooooo........++++++++++++++++++++++..++....ooooooooooo",
"ooooooooooo........++++++++++++++++++++++..++....ooooooooooo",
"ooooooooooo........++    ++++++++    ++++++++....ooooooooooo",
"ooooooooooo........++    ++++++++    ++++++++....ooooooooooo",
"ooooooooooo......++++++++++++++++++++++++++......ooooooooXXX",
"ooooooooooo......++++++++++++++++++++++++++......ooooooooXXX",
"ooooooooooo......++++++++++    ++++++++++........ooooooooXXX",
"ooooooooooo......++++++++++    ++++++++++........ooooooooooo",
"ooooooooooo........++++++++++++++++++............ooooooooooo",
"ooooooooooo........++++++++++++++++++............ooooooooooo",
"ooooooooooo............++++++++++++..............ooooooooooo",
"ooooooooooo............++++++++++++..............ooooooooooo",
"ooooooooooooo..oo............++++..........oo..ooooooooooooo",
"ooooooXXXXXXo..oo............++++..........oo..ooooooooooooo",
"ooooooXXXXXXoooooooooXXXooo..++++..oooooo..ooooooooooooooooo",
"ooooooXXXXXXoooooooooXXXooo..++++..oooooo..ooooooooooooooooo",
"ooooooooooooooooooooooooo..............oooooooooXXXooooooooo",
"ooooooooooooooooooooooooo..............oooooooooXXXooooooooo",
"ooooooooooooooooooo......##........##......oooooXXXooooooooo",
"ooooooooooooooooooX......##........##......oooooooooooOOOooo",
"ooooooooooooooooo..##..################..##..oooooooooOOOooo",
"ooooooooooooooooo..##..################..##..oooooooooOOOooo",
"XXXoooooooooooo..##..@@@@@@@@@@@@@@@@@@....##..ooooooooooXXX",
"XXXoooooooooooo..##..@@@@@@@@@@@@@@@@@@....##..ooooooooooXXX",
"XXXoooooooooooo..##..####################..##..ooooooooooXXX",
"ooooooooooooooo..##..####################..##..ooooooooooooo",
"ooooooooooooooo......@@@@@@@@@@@@@@@@@@@@......ooooooooooooo",
"ooooooooooooooo......@@@@@@@@@@@@@@@@@@@@......ooooooooooooo",
"oooooooooXXXooo..++..####################..++..ooooooooooooo",
"oooooooooXXXooo..++..####################..++..ooooooooooooo",
"oooooooooXXXooo......####################......ooooooooooooo",
"ooooooooooooooo......####################......ooooXXXXXXXXX",
"ooooooooooooooooooX..######......########..ooooooooXXXXXXXXX",
"ooooooooooooooooooX..######......########..ooooooooXXXXXXXXX",
"ooooooOOOoooooooooo..######..oo..########..ooooooooooooooooo",
"ooooooOOOoooooooooo..######..oo..########..ooooooooooooooooo",
"ooooooOOOoooooooooo..........oo............ooooooooooooooooo",
"oooooooooooooooXXXo..........oo............ooooooooooooooooo",
"oooooooooooooooXXXooooo......oo........OOOoooooooooooooooooo",
"oooooooooooooooXXXooooo......oo........OOOoooooooooooooooooo",
"ooooooooooooOOOoooooo........oo..........ooooooooooooooooooo",
"ooooooooooooOOOoooooo........oo..........ooooooooooooooooooo",
"ooooooooooooOOOooooooooooooooooooooooooooooooooooooooooooooo"
};
