/* XPM */
static char *result[] = {
/* columns rows colors chars-per-pixel */
"34 58 6 1 ",
"  c black",
". c #3D120E",
"X c #FFC90E",
"o c #E607F8",
"O c #67A4E0",
"+ c None",
/* pixels */
"++++++++..................++++++++",
"++++++++..................++++++++",
"++++++........................++++",
"++++++........................++++",
"++++............................++",
"++++............................++",
"++................................",
"++................................",
"++................................",
"++................................",
"......................XX..XX......",
"......................XX..XX......",
"....................XXXX..XX....++",
"....................XXXX..XX....++",
"....................XXXXXXXXXX..++",
"....................XXXXXXXXXX..++",
"............XXXX....XXXXXXXXXX..++",
"............XXXX....XXXXXXXXXX..++",
"............XXXXXX..XXXX    XX..++",
"............XXXXXX..XXXX    XX..++",
"..............XXXX..XXXXXXXXXXXX..",
"..............XXXX..XXXXXXXXXXXX..",
"................XXXXXXXXXXXXXXXX..",
"................XXXXXXXXXXXXXXXX..",
"++................XXXXXXXXXX    ..",
"++................XXXXXXXXXX    ..",
"++..++............XXXXXXXXXXXX..++",
"++..++............XXXXXXXXXXXX..++",
"++++++++..++....XXXX..........++++",
"++++++++..++....XXXX..........++++",
"++++++++++++++..XXXX..++++++++++++",
"++++++++++++++..XXXX..++++++++++++",
"++++++++++++++........++++++++++++",
"++++++++++++++........++++++++++++",
"++++++++++++....OO......++++++++++",
"++++++++++++....OO......++++++++++",
"++++++++++..OO..OOOOOOOO..++++++++",
"++++++++++..OO..OOOOOOOO..++++++++",
"++++++++++..oo..OO..oooo..++++++++",
"++++++++++..oo..OO..oooo..++++++++",
"++++++++++..OO..OO..OOOOOO..++++++",
"++++++++++..OO..OO..OOOOOO..++++++",
"++++++++++..oo......oooooo..++++++",
"++++++++++..oo......oooooo..++++++",
"++++++++++..OO..XXXX..OOOO..++++++",
"++++++++++..OO..XXXX..OOOO..++++++",
"++++++++++..OO..XXXX..OOOO..++++++",
"++++++++++..OO..XXXX..OOOO..++++++",
"++++++++++..OOOO....OOOO..++++++++",
"++++++++++..OOOO....OOOO..++++++++",
"++++++++++++..OOOOOOOO..++++++++++",
"++++++++++++..OOOOOOOO..++++++++++",
"++++++++++++............++++++++++",
"++++++++++++............++++++++++",
"++++++++++++++........++++++++++++",
"++++++++++++++........++++++++++++",
"++++++++++++++..........++++++++++",
"++++++++++++++..........++++++++++"
};
