/* XPM */
static char *_3824bca046c43778a1e8b66fe924a9aLZw9ZcNilbvvmsmZ[] = {
/* columns rows colors chars-per-pixel */
"17 29 6 1 ",
"  c black",
". c #3D120E",
"X c #FFC90E",
"o c #E607F8",
"O c #67A4E0",
"+ c #C386FF",
/* pixels */
"++++.........++++",
"+++............++",
"++..............+",
"+................",
"+................",
"...........X.X...",
"..........XX.X..+",
"..........XXXXX.+",
"......XX..XXXXX.+",
"......XXX.XX  X.+",
".......XX.XXXXXX.",
"........XXXXXXXX.",
"+........XXXXX  .",
"+.+......XXXXXX.+",
"++++.+..XX.....++",
"+++++++.XX.++++++",
"+++++++....++++++",
"++++++..O...+++++",
"+++++.O.OOOO.++++",
"+++++.o.O.oo.++++",
"+++++.O.O.OOO.+++",
"+++++.o...ooo.+++",
"+++++.O.XX.OO.+++",
"+++++.O.XX.OO.+++",
"+++++.OO..OO.++++",
"++++++.OOOO.+++++",
"++++++......+++++",
"+++++++....++++++",
"+++++++.....+++++"
};
