/* XPM */
static char *_debb34c98524980dfe14310de0ded1bGdphhSjZsTJZ9cFO[] = {
/* columns rows colors chars-per-pixel */
"19 29 6 1 ",
"  c black",
". c #3D120E",
"X c #FFC90E",
"o c #E607F8",
"O c #67A4E0",
"+ c #C386FF",
/* pixels */
"+++++.........+++++",
"++++...........++++",
"+++.............+++",
"++...............++",
"++................+",
"+....X....X.......+",
"+...XXX..XX..X....+",
"+...XXXXXXXXXXX....",
"....XXXXXXXXXXX.X..",
"....X  XXXX  XXXX..",
"...XXXXXXXXXXXXX...",
"...XXXXX  XXXXX....",
"....XXXXXXXXX......",
"......XXXXXX.......",
"+.+......XX.....+.+",
"++++++++.XX.+++.+++",
"+++++++.......+++++",
"++++...O....O...+++",
"+++.O.OOOOOOOO.O.++",
"++.O.ooooooooo..O.+",
"++.O.OOOOOOOOOO.O.+",
"++...oooooooooo...+",
"++.X.OOOOOOOOOO.X.+",
"++...OOOOOOOOOO...+",
"++++.OOO...OOOO.+++",
"++++.OOO.+.OOOO.+++",
"++++.....+......+++",
"++++++...+....+++++",
"+++++....+.....++++"
};
