/* XPM */
static char *result[] = {
/* columns rows colors chars-per-pixel */
"38 58 6 1 ",
"  c black",
". c #3D120E",
"X c #FFC90E",
"o c #E607F8",
"O c #67A4E0",
"+ c None",
/* pixels */
"++++++++++..................++++++++++",
"++++++++++..................++++++++++",
"++++++++......................++++++++",
"++++++++......................++++++++",
"++++++..........................++++++",
"++++++..........................++++++",
"++++..............................++++",
"++++..............................++++",
"++++................................++",
"++++................................++",
"++........XX........XX..............++",
"++........XX........XX..............++",
"++......XXXXXX....XXXX....XX........++",
"++......XXXXXX....XXXX....XX........++",
"++......XXXXXXXXXXXXXXXXXXXXXX........",
"++......XXXXXXXXXXXXXXXXXXXXXX........",
"........XXXXXXXXXXXXXXXXXXXXXX..XX....",
"........XXXXXXXXXXXXXXXXXXXXXX..XX....",
"........XX    XXXXXXXX    XXXXXXXX....",
"........XX    XXXXXXXX    XXXXXXXX....",
"......XXXXXXXXXXXXXXXXXXXXXXXXXX......",
"......XXXXXXXXXXXXXXXXXXXXXXXXXX......",
"......XXXXXXXXXX    XXXXXXXXXX........",
"......XXXXXXXXXX    XXXXXXXXXX........",
"........XXXXXXXXXXXXXXXXXX............",
"........XXXXXXXXXXXXXXXXXX............",
"............XXXXXXXXXXXX..............",
"............XXXXXXXXXXXX..............",
"++..++............XXXX..........++..++",
"++..++............XXXX..........++..++",
"++++++++++++++++..XXXX..++++++..++++++",
"++++++++++++++++..XXXX..++++++..++++++",
"++++++++++++++..............++++++++++",
"++++++++++++++..............++++++++++",
"++++++++......OO........OO......++++++",
"++++++++......OO........OO......++++++",
"++++++..OO..OOOOOOOOOOOOOOOO..OO..++++",
"++++++..OO..OOOOOOOOOOOOOOOO..OO..++++",
"++++..OO..oooooooooooooooooo....OO..++",
"++++..OO..oooooooooooooooooo....OO..++",
"++++..OO..OOOOOOOOOOOOOOOOOOOO..OO..++",
"++++..OO..OOOOOOOOOOOOOOOOOOOO..OO..++",
"++++......oooooooooooooooooooo......++",
"++++......oooooooooooooooooooo......++",
"++++..XX..OOOOOOOOOOOOOOOOOOOO..XX..++",
"++++..XX..OOOOOOOOOOOOOOOOOOOO..XX..++",
"++++......OOOOOOOOOOOOOOOOOOOO......++",
"++++......OOOOOOOOOOOOOOOOOOOO......++",
"++++++++..OOOOOO......OOOOOOOO..++++++",
"++++++++..OOOOOO......OOOOOOOO..++++++",
"++++++++..OOOOOO..++..OOOOOOOO..++++++",
"++++++++..OOOOOO..++..OOOOOOOO..++++++",
"++++++++..........++............++++++",
"++++++++..........++............++++++",
"++++++++++++......++........++++++++++",
"++++++++++++......++........++++++++++",
"++++++++++........++..........++++++++",
"++++++++++........++..........++++++++"
};
